<svg width="33" height="34" viewBox="0 0 33 34" fill="none" xmlns="http://www.w3.org/2000/svg">
<path d="M18.1607 4.02772C18.5834 3.57915 18.7907 2.99847 18.7825 2.4178C18.7743 1.83713 18.5534 1.26196 18.1171 0.824394L18.0843 0.79137C17.6534 0.378571 17.1026 0.177673 16.5544 0.185932C16.0062 0.194187 15.4608 0.411594 15.0408 0.838154C10.2245 5.69819 5.4601 10.638 0.673847 15.5338C0.654755 15.5476 0.638393 15.5614 0.622032 15.5779C0.199314 16.0264 -0.00795746 16.6126 0.000225067 17.1933C0.00840759 17.774 0.23204 18.3519 0.668392 18.7895L0.742027 18.861C5.50646 23.688 10.2654 28.5315 15.0435 33.3503C15.4608 33.7741 16.0062 33.9915 16.5544 33.9998C17.1026 34.008 17.6534 33.8071 18.0843 33.3916L18.1253 33.3503C18.5534 32.9155 18.7743 32.3431 18.7825 31.7651C18.7907 31.1872 18.5834 30.6038 18.1607 30.1552L5.28283 17.1465L18.1607 4.02772ZM32.2795 4.57812C32.6995 4.1323 32.904 3.55163 32.8958 2.97371C32.8876 2.39304 32.6667 1.81787 32.2304 1.3803L32.1977 1.34727C31.7695 0.934475 31.2159 0.733578 30.6677 0.739082C30.1195 0.747337 29.5714 0.964748 29.1541 1.39131C24.4387 6.14952 19.568 10.8279 14.7899 15.5283C14.7708 15.5421 14.7517 15.5586 14.7326 15.5751C14.3099 16.0237 14.1026 16.6099 14.1108 17.1905C14.119 17.7712 14.3426 18.3491 14.779 18.7867C19.5489 23.4513 24.3433 28.0995 29.1241 32.7586L29.1568 32.7944C29.5741 33.2182 30.1195 33.4328 30.6677 33.4411C31.2159 33.4494 31.7668 33.2485 32.1977 32.8357L32.2386 32.7944C32.6667 32.3596 32.8876 31.7844 32.8958 31.2092C32.904 30.6313 32.6967 30.0479 32.274 29.5993L19.407 17.1493L32.2795 4.57812Z" fill="white"/>
</svg>
