<svg width="10" height="10" viewBox="0 0 10 10" fill="none" xmlns="http://www.w3.org/2000/svg">
<path d="M5.84709 1.79788C5.96622 1.67513 6.02464 1.51622 6.02233 1.35732C6.02003 1.19841 5.95777 1.04101 5.83479 0.921268L5.82557 0.912231C5.70412 0.799266 5.54886 0.744289 5.39437 0.746549C5.23988 0.748808 5.08615 0.808304 4.96779 0.925035C3.61041 2.25502 2.26763 3.60684 0.918705 4.94661C0.913324 4.95037 0.908713 4.95414 0.904101 4.95866C0.784966 5.08141 0.72655 5.24182 0.728856 5.40073C0.731162 5.55963 0.794189 5.71779 0.917168 5.83753L0.937921 5.85711C2.2807 7.17805 3.62194 8.50352 4.96856 9.8222C5.08616 9.93818 5.23988 9.99767 5.39437 9.99993C5.54886 10.0022 5.70412 9.94722 5.82557 9.8335L5.8371 9.8222C5.95777 9.70321 6.02003 9.54656 6.02233 9.38841C6.02464 9.23026 5.96622 9.0706 5.84709 8.94785L2.21767 5.38793L5.84709 1.79788ZM9.82623 1.9485C9.94459 1.8265 10.0022 1.66759 9.99993 1.50944C9.99763 1.35054 9.93537 1.19314 9.81239 1.0734L9.80317 1.06436C9.68249 0.951393 9.52646 0.896417 9.37197 0.897923C9.21748 0.900182 9.06299 0.959678 8.94539 1.07641C7.61645 2.37852 6.24369 3.6588 4.89708 4.9451C4.89169 4.94887 4.88631 4.95339 4.88093 4.9579C4.7618 5.08066 4.70338 5.24107 4.70569 5.39998C4.70799 5.55888 4.77102 5.71703 4.894 5.83678C6.23831 7.11329 7.58955 8.38528 8.93693 9.66028L8.94616 9.67007C9.06376 9.78605 9.21748 9.84479 9.37197 9.84705C9.52646 9.84931 9.68173 9.79434 9.80317 9.68137L9.8147 9.67007C9.93537 9.55108 9.99763 9.39368 9.99993 9.23629C10.0022 9.07813 9.94382 8.91848 9.82469 8.79572L6.19835 5.38868L9.82623 1.9485Z" fill="white"/>
</svg>
