<svg width="35" height="35" viewBox="0 0 40 26" fill="none" xmlns="http://www.w3.org/2000/svg">
<path d="M11.9557 0.984375C13.0846 0.984375 14.1005 1.08213 15.032 1.28146C15.9577 1.47888 16.7474 1.80471 17.4144 2.25513C18.0718 2.70554 18.5855 3.30354 18.9554 4.05488C19.3138 4.79663 19.4921 5.72429 19.4921 6.82062C19.4921 8.00896 19.2237 9.00179 18.6851 9.79337C18.1427 10.5869 17.3435 11.2366 16.2778 11.7388C17.7287 12.1585 18.804 12.8926 19.517 13.9353C20.2338 14.9875 20.5846 16.2468 20.5846 17.7226C20.5846 18.9205 20.3565 19.9498 19.8984 20.8142C19.457 21.6658 18.8166 22.3982 18.0316 22.9494C17.2185 23.5156 16.3102 23.9311 15.3501 24.176C14.3435 24.4403 13.3069 24.573 12.2662 24.5709H0.833313V0.984375H11.9557ZM11.283 10.514C12.203 10.514 12.9658 10.2955 13.5676 9.85279C14.1656 9.41579 14.4551 8.69513 14.4551 7.70804C14.4551 7.15988 14.3573 6.70754 14.1656 6.35296C13.9789 6.01183 13.7025 5.72818 13.3664 5.53263C13.0146 5.32395 12.6262 5.18411 12.2221 5.12054C11.7817 5.03839 11.3343 4.99924 10.8862 5.00362H6.02748V10.514H11.283ZM11.5724 20.5555C12.0841 20.5555 12.571 20.5114 13.0291 20.4079C13.491 20.3082 13.9011 20.1472 14.25 19.9076C14.5988 19.6776 14.8863 19.3652 15.0933 18.9665C15.3022 18.5717 15.4038 18.0561 15.4038 17.437C15.4038 16.2219 15.0607 15.3575 14.3822 14.8342C13.7018 14.3167 12.7895 14.0599 11.6721 14.0599H6.02748V20.5574H11.5724V20.5555ZM27.9886 20.4769C28.6921 21.163 29.706 21.508 31.0246 21.508C31.9696 21.508 32.7861 21.2685 33.4741 20.7931C34.1526 20.3159 34.5666 19.806 34.7257 19.279H38.8561C38.193 21.3336 37.1867 22.8018 35.8106 23.6854C34.4516 24.5728 32.7976 25.0136 30.8656 25.0136C29.5201 25.0136 28.3087 24.797 27.2239 24.3677C26.1826 23.9622 25.2416 23.3358 24.4658 22.5315C23.7028 21.7086 23.1129 20.7407 22.7312 19.6853C22.3117 18.5182 22.104 17.2856 22.1179 16.0455C22.1179 14.769 22.3306 13.575 22.7485 12.4729C23.1451 11.4076 23.7542 10.434 24.5386 9.61129C25.3149 8.80629 26.2349 8.17188 27.3063 7.70612C28.433 7.23228 29.6453 6.99607 30.8675 7.01229C32.3126 7.01229 33.5757 7.29212 34.6606 7.85563C35.7126 8.39353 36.6248 9.16921 37.3247 10.1211C38.0205 11.066 38.5169 12.149 38.8255 13.3622C39.1341 14.5735 39.2414 15.8385 39.1532 17.163H26.8271C26.8291 18.5123 27.2833 19.7907 27.9886 20.4769ZM33.3783 11.505C32.8206 10.8878 31.8776 10.5543 30.7237 10.5543C29.9743 10.5543 29.3552 10.6789 28.8569 10.9357C28.4012 11.1658 27.997 11.486 27.6686 11.8768C27.3801 12.2316 27.1663 12.641 27.0399 13.0805C26.9293 13.4469 26.858 13.824 26.8271 14.2055H34.4593C34.3481 13.0095 33.938 12.126 33.3783 11.505ZM25.8688 2.56754H35.4311V4.89629H25.8688V2.56754Z" fill="#0C3257"/>
</svg>
