<svg width="35" height="35" viewBox="0 0 46 46" fill="none" xmlns="http://www.w3.org/2000/svg">
<path d="M32.5833 6.70844C32.5833 6.45427 32.4824 6.21051 32.3026 6.03079C32.1229 5.85107 31.8792 5.7501 31.625 5.7501H26.8333C24.4205 5.62991 22.0581 6.4696 20.2625 8.08571C18.4668 9.70182 17.3838 11.963 17.25 14.3751V19.5501H12.4583C12.2042 19.5501 11.9604 19.6511 11.7807 19.8308C11.601 20.0105 11.5 20.2543 11.5 20.5084V25.4918C11.5 25.7459 11.601 25.9897 11.7807 26.1694C11.9604 26.3491 12.2042 26.4501 12.4583 26.4501H17.25V39.2918C17.25 39.5459 17.351 39.7897 17.5307 39.9694C17.7104 40.1491 17.9542 40.2501 18.2083 40.2501H23.9583C24.2125 40.2501 24.4563 40.1491 24.636 39.9694C24.8157 39.7897 24.9167 39.5459 24.9167 39.2918V26.4501H29.9383C30.1514 26.4532 30.3595 26.3851 30.5296 26.2567C30.6997 26.1282 30.8221 25.9467 30.8775 25.7409L32.2575 20.7576C32.2956 20.616 32.3008 20.4675 32.2725 20.3237C32.2442 20.1798 32.1833 20.0443 32.0944 19.9276C32.0055 19.811 31.8911 19.7163 31.7599 19.6508C31.6286 19.5854 31.4841 19.5509 31.3375 19.5501H24.9167V14.3751C24.9643 13.9007 25.1871 13.4611 25.5415 13.1421C25.896 12.8231 26.3565 12.6477 26.8333 12.6501H31.625C31.8792 12.6501 32.1229 12.5491 32.3026 12.3694C32.4824 12.1897 32.5833 11.9459 32.5833 11.6918V6.70844Z" fill="#0C3257"/>
</svg>
