<svg width="838" height="605" viewBox="0 0 838 605" fill="none" xmlns="http://www.w3.org/2000/svg">
<g filter="url(#filter0_ii_973_4)">
<path fill-rule="evenodd" clip-rule="evenodd" d="M417.233 377.489C412.272 440.988 435.753 506.14 487.677 552.442C567.381 623.216 689.749 622.555 768.792 550.127C858.088 468.768 860.403 330.195 776.068 245.861C730.428 200.551 669.575 180.047 610.045 185.007C603.1 185.338 595.824 186.33 588.879 187.653C583.587 189.307 578.626 190.63 573.335 191.291C539.931 196.252 504.544 185.999 478.748 160.203C468.164 149.62 460.227 137.714 454.935 124.816C450.636 115.225 448.652 104.972 447.66 94.389L447.659 94.388C447.329 91.4118 446.998 88.4356 446.337 85.4594C444.022 73.2226 439.722 61.3166 433.108 50.072C428.478 42.4653 422.524 34.8587 415.91 28.2442C372.254 -15.7421 300.818 -14.7499 257.824 30.5593C219.129 71.569 218.137 136.722 255.509 178.724C263.446 187.984 272.707 195.26 282.298 200.882C293.542 207.497 305.448 211.796 317.685 214.111C320.661 214.772 323.637 215.103 326.613 215.434L326.615 215.434C336.867 216.757 347.45 218.741 357.041 222.71C369.939 228.001 381.845 235.939 392.429 246.522C416.902 270.665 427.485 304.068 424.178 335.817C423.958 338.022 423.443 340.226 422.929 342.431L422.929 342.431L422.929 342.432C422.671 343.534 422.414 344.637 422.194 345.739C421.202 349.377 420.54 352.684 419.879 356.322C418.886 363.267 417.894 370.543 417.233 377.489ZM192.765 64.5111C197.726 1.01213 174.245 -64.1405 122.321 -110.442C42.6166 -181.217 -79.7512 -180.555 -158.794 -108.127C-248.09 -26.7687 -250.405 111.805 -166.07 196.139C-120.43 241.448 -59.577 261.953 -0.0467713 256.992C6.89842 256.662 14.1744 255.669 21.1195 254.347C26.4112 252.693 31.372 251.37 36.6636 250.709C70.0667 245.748 105.454 256 131.251 281.797C141.834 292.38 149.771 304.286 155.063 317.184C159.362 326.775 161.346 337.028 162.339 347.611L162.339 347.612C162.67 350.588 163 353.564 163.662 356.54C165.977 368.777 170.276 380.683 176.89 391.928C181.521 399.534 187.474 407.141 194.088 413.756C237.744 457.742 309.18 456.75 352.174 411.44C390.869 370.431 391.861 305.278 354.489 263.276C346.552 254.016 337.292 246.74 327.701 241.118C316.456 234.503 304.55 230.204 292.313 227.889C289.337 227.227 286.36 226.897 283.384 226.566C273.131 225.243 262.548 223.259 252.957 219.29C240.059 213.998 228.153 206.061 217.57 195.478C193.096 171.335 182.513 137.932 185.82 106.182C186.041 103.977 186.555 101.773 187.07 99.5678C187.327 98.4654 187.584 97.363 187.804 96.2606C188.797 92.6226 189.458 89.3154 190.119 85.6774C191.112 78.7322 192.104 71.4563 192.765 64.5111ZM569.897 162.745C518.706 162.745 477.208 121.247 477.208 70.0559C477.208 18.865 518.706 -22.6334 569.897 -22.6334C621.088 -22.6334 662.586 18.865 662.586 70.0559C662.586 121.247 621.088 162.745 569.897 162.745ZM-41.8521 374.606C-41.8521 425.797 -0.353726 467.296 50.8371 467.296C102.028 467.296 143.526 425.797 143.526 374.606C143.526 323.415 102.028 281.917 50.8371 281.917C-0.353718 281.917 -41.8521 323.415 -41.8521 374.606Z" fill="url(#paint0_radial_973_4)"/>
<path fill-rule="evenodd" clip-rule="evenodd" d="M417.233 377.489C412.272 440.988 435.753 506.14 487.677 552.442C567.381 623.216 689.749 622.555 768.792 550.127C858.088 468.768 860.403 330.195 776.068 245.861C730.428 200.551 669.575 180.047 610.045 185.007C603.1 185.338 595.824 186.33 588.879 187.653C583.587 189.307 578.626 190.63 573.335 191.291C539.931 196.252 504.544 185.999 478.748 160.203C468.164 149.62 460.227 137.714 454.935 124.816C450.636 115.225 448.652 104.972 447.66 94.389L447.659 94.388C447.329 91.4118 446.998 88.4356 446.337 85.4594C444.022 73.2226 439.722 61.3166 433.108 50.072C428.478 42.4653 422.524 34.8587 415.91 28.2442C372.254 -15.7421 300.818 -14.7499 257.824 30.5593C219.129 71.569 218.137 136.722 255.509 178.724C263.446 187.984 272.707 195.26 282.298 200.882C293.542 207.497 305.448 211.796 317.685 214.111C320.661 214.772 323.637 215.103 326.613 215.434L326.615 215.434C336.867 216.757 347.45 218.741 357.041 222.71C369.939 228.001 381.845 235.939 392.429 246.522C416.902 270.665 427.485 304.068 424.178 335.817C423.958 338.022 423.443 340.226 422.929 342.431L422.929 342.431L422.929 342.432C422.671 343.534 422.414 344.637 422.194 345.739C421.202 349.377 420.54 352.684 419.879 356.322C418.886 363.267 417.894 370.543 417.233 377.489ZM192.765 64.5111C197.726 1.01213 174.245 -64.1405 122.321 -110.442C42.6166 -181.217 -79.7512 -180.555 -158.794 -108.127C-248.09 -26.7687 -250.405 111.805 -166.07 196.139C-120.43 241.448 -59.577 261.953 -0.0467713 256.992C6.89842 256.662 14.1744 255.669 21.1195 254.347C26.4112 252.693 31.372 251.37 36.6636 250.709C70.0667 245.748 105.454 256 131.251 281.797C141.834 292.38 149.771 304.286 155.063 317.184C159.362 326.775 161.346 337.028 162.339 347.611L162.339 347.612C162.67 350.588 163 353.564 163.662 356.54C165.977 368.777 170.276 380.683 176.89 391.928C181.521 399.534 187.474 407.141 194.088 413.756C237.744 457.742 309.18 456.75 352.174 411.44C390.869 370.431 391.861 305.278 354.489 263.276C346.552 254.016 337.292 246.74 327.701 241.118C316.456 234.503 304.55 230.204 292.313 227.889C289.337 227.227 286.36 226.897 283.384 226.566C273.131 225.243 262.548 223.259 252.957 219.29C240.059 213.998 228.153 206.061 217.57 195.478C193.096 171.335 182.513 137.932 185.82 106.182C186.041 103.977 186.555 101.773 187.07 99.5678C187.327 98.4654 187.584 97.363 187.804 96.2606C188.797 92.6226 189.458 89.3154 190.119 85.6774C191.112 78.7322 192.104 71.4563 192.765 64.5111ZM569.897 162.745C518.706 162.745 477.208 121.247 477.208 70.0559C477.208 18.865 518.706 -22.6334 569.897 -22.6334C621.088 -22.6334 662.586 18.865 662.586 70.0559C662.586 121.247 621.088 162.745 569.897 162.745ZM-41.8521 374.606C-41.8521 425.797 -0.353726 467.296 50.8371 467.296C102.028 467.296 143.526 425.797 143.526 374.606C143.526 323.415 102.028 281.917 50.8371 281.917C-0.353718 281.917 -41.8521 323.415 -41.8521 374.606Z" fill="#05E2DC" fill-opacity="0.65"/>
</g>
<defs>
<filter id="filter0_ii_973_4" x="-256.956" y="-202.399" width="1136.71" height="858.775" filterUnits="userSpaceOnUse" color-interpolation-filters="sRGB">
<feFlood flood-opacity="0" result="BackgroundImageFix"/>
<feBlend mode="normal" in="SourceGraphic" in2="BackgroundImageFix" result="shape"/>
<feColorMatrix in="SourceAlpha" type="matrix" values="0 0 0 0 0 0 0 0 0 0 0 0 0 0 0 0 0 0 127 0" result="hardAlpha"/>
<feOffset dx="-29.3625" dy="51.3844"/>
<feGaussianBlur stdDeviation="62.3954"/>
<feComposite in2="hardAlpha" operator="arithmetic" k2="-1" k3="1"/>
<feColorMatrix type="matrix" values="0 0 0 0 1 0 0 0 0 1 0 0 0 0 1 0 0 0 0.87 0"/>
<feBlend mode="lighten" in2="shape" result="effect1_innerShadow_973_4"/>
<feColorMatrix in="SourceAlpha" type="matrix" values="0 0 0 0 0 0 0 0 0 0 0 0 0 0 0 0 0 0 127 0" result="hardAlpha"/>
<feOffset dx="42.16" dy="-39.408"/>
<feGaussianBlur stdDeviation="24.5928"/>
<feComposite in2="hardAlpha" operator="arithmetic" k2="-1" k3="1"/>
<feColorMatrix type="matrix" values="0 0 0 0 0.168627 0 0 0 0 0.180392 0 0 0 0 0.239216 0 0 0 0.9 0"/>
<feBlend mode="multiply" in2="effect1_innerShadow_973_4" result="effect2_innerShadow_973_4"/>
</filter>
<radialGradient id="paint0_radial_973_4" cx="0" cy="0" r="1" gradientUnits="userSpaceOnUse" gradientTransform="translate(924.528 97.2612) rotate(178.087) scale(403.406 756.913)">
<stop stop-color="#949494"/>
<stop offset="0.635171" stop-color="#14CADD"/>
<stop offset="1" stop-color="#006671"/>
</radialGradient>
</defs>
</svg>
