<svg width="22" height="21" viewBox="0 0 22 21" fill="none" xmlns="http://www.w3.org/2000/svg">
<path d="M10.8392 7.1061C8.94808 7.1061 7.4048 8.64939 7.4048 10.5405C7.4048 12.4316 8.94808 13.9749 10.8392 13.9749C12.7303 13.9749 14.2736 12.4316 14.2736 10.5405C14.2736 8.64939 12.7303 7.1061 10.8392 7.1061ZM21.1398 10.5405C21.1398 9.1183 21.1527 7.70899 21.0728 6.28937C20.9929 4.64045 20.6168 3.17703 19.411 1.97126C18.2027 0.762906 16.7418 0.389323 15.0929 0.309453C13.6707 0.229583 12.2614 0.242466 10.8418 0.242466C9.41957 0.242466 8.01026 0.229583 6.59064 0.309453C4.94172 0.389323 3.4783 0.765483 2.27253 1.97126C1.06418 3.17961 0.690592 4.64045 0.610723 6.28937C0.530853 7.71157 0.543735 9.12088 0.543735 10.5405C0.543735 11.9601 0.530853 13.372 0.610723 14.7916C0.690592 16.4405 1.06675 17.904 2.27253 19.1097C3.48088 20.3181 4.94172 20.6917 6.59064 20.7715C8.01284 20.8514 9.42215 20.8385 10.8418 20.8385C12.264 20.8385 13.6733 20.8514 15.0929 20.7715C16.7418 20.6917 18.2052 20.3155 19.411 19.1097C20.6194 17.9014 20.9929 16.4405 21.0728 14.7916C21.1553 13.372 21.1398 11.9627 21.1398 10.5405ZM10.8392 15.8248C7.91493 15.8248 5.55491 13.4648 5.55491 10.5405C5.55491 7.61624 7.91493 5.25622 10.8392 5.25622C13.7635 5.25622 16.1235 7.61624 16.1235 10.5405C16.1235 13.4648 13.7635 15.8248 10.8392 15.8248ZM16.3399 6.27391C15.6571 6.27391 15.1058 5.72255 15.1058 5.0398C15.1058 4.35704 15.6571 3.80568 16.3399 3.80568C17.0226 3.80568 17.574 4.35704 17.574 5.0398C17.5742 5.20192 17.5424 5.36249 17.4805 5.51231C17.4185 5.66213 17.3276 5.79826 17.213 5.9129C17.0984 6.02754 16.9622 6.11844 16.8124 6.18039C16.6626 6.24233 16.502 6.27412 16.3399 6.27391Z" fill="#7D7AD8"/>
</svg>
