<svg width="35" height="35" viewBox="0 0 47 46" fill="none" xmlns="http://www.w3.org/2000/svg">
<path d="M40.4817 15.9177C40.4624 14.4661 40.1907 13.0289 39.6787 11.6704C39.2347 10.5245 38.5565 9.48384 37.6876 8.61489C36.8186 7.74593 35.778 7.06779 34.6321 6.6238C33.2911 6.1204 31.8743 5.8482 30.4422 5.8188C28.5984 5.73638 28.0138 5.71338 23.3333 5.71338C18.6528 5.71338 18.0529 5.71338 16.2225 5.8188C14.791 5.84842 13.375 6.12061 12.0346 6.6238C10.8885 7.06748 9.8477 7.74551 8.97871 8.61451C8.10971 9.4835 7.43168 10.5243 6.98799 11.6704C6.48359 13.0104 6.21198 14.4268 6.18491 15.8583C6.10249 17.704 6.07758 18.2886 6.07758 22.9691C6.07758 27.6496 6.07758 28.2476 6.18491 30.08C6.21366 31.5136 6.48391 32.9281 6.98799 34.2717C7.43242 35.4174 8.11096 36.4578 8.98024 37.3264C9.84953 38.1951 10.8904 38.8728 12.0365 39.3164C13.3732 39.84 14.7895 40.1317 16.2244 40.1789C18.0702 40.2613 18.6547 40.2862 23.3352 40.2862C28.0157 40.2862 28.6157 40.2862 30.4461 40.1789C31.8781 40.1507 33.2949 39.8791 34.6359 39.3758C35.7815 38.9313 36.8219 38.253 37.6908 37.3841C38.5597 36.5152 39.238 35.4748 39.6825 34.3292C40.1866 32.9875 40.4568 31.573 40.4856 30.1375C40.568 28.2936 40.5929 27.709 40.5929 23.0266C40.5891 18.3461 40.5891 17.752 40.4817 15.9177ZM23.3218 31.8203C18.4267 31.8203 14.4611 27.8547 14.4611 22.9595C14.4611 18.0644 18.4267 14.0988 23.3218 14.0988C25.6718 14.0988 27.9256 15.0323 29.5873 16.694C31.249 18.3558 32.1826 20.6095 32.1826 22.9595C32.1826 25.3096 31.249 27.5633 29.5873 29.225C27.9256 30.8868 25.6718 31.8203 23.3218 31.8203ZM32.5352 15.8372C31.391 15.8372 30.4691 14.9134 30.4691 13.771C30.4691 13.4998 30.5225 13.2313 30.6263 12.9807C30.7301 12.7302 30.8822 12.5025 31.074 12.3107C31.2657 12.119 31.4934 11.9668 31.744 11.863C31.9945 11.7593 32.2631 11.7058 32.5343 11.7058C32.8055 11.7058 33.074 11.7593 33.3246 11.863C33.5752 11.9668 33.8028 12.119 33.9946 12.3107C34.1864 12.5025 34.3385 12.7302 34.4423 12.9807C34.5461 13.2313 34.5995 13.4998 34.5995 13.771C34.5995 14.9134 33.6757 15.8372 32.5352 15.8372Z" fill="#0C3257"/>
<path d="M23.3218 28.7151C26.5006 28.7151 29.0776 26.1382 29.0776 22.9594C29.0776 19.7806 26.5006 17.2036 23.3218 17.2036C20.143 17.2036 17.5661 19.7806 17.5661 22.9594C17.5661 26.1382 20.143 28.7151 23.3218 28.7151Z" fill="#0C3257"/>
</svg>
