<svg xmlns="http://www.w3.org/2000/svg" xmlns:xlink="http://www.w3.org/1999/xlink" viewBox="0 0 96.53 122.33"><defs><style>.cls-1{fill:#9dc44d;}.cls-2{fill:url(#Degradado_sin_nombre_3);}.cls-3{fill:url(#linear-gradient);}.cls-4{fill:url(#linear-gradient-2);}.cls-5{fill:url(#linear-gradient-3);}</style><linearGradient id="Degradado_sin_nombre_3" x1="-590.52" y1="25" x2="-576.77" y2="25" gradientTransform="translate(38.24 -523.64) rotate(-90)" gradientUnits="userSpaceOnUse"><stop offset="0" stop-color="#80b851"/><stop offset="1" stop-color="#9dc44d"/></linearGradient><linearGradient id="linear-gradient" x1="868.96" y1="1432.51" x2="855.29" y2="1464.49" gradientTransform="matrix(-1, 0, 0, 1, 905.57, -1390.98)" gradientUnits="userSpaceOnUse"><stop offset="0" stop-color="#487c44"/><stop offset="1" stop-color="#9dc44d"/></linearGradient><linearGradient id="linear-gradient-2" x1="34.66" y1="101.4" x2="48.11" y2="89.42" gradientUnits="userSpaceOnUse"><stop offset="0" stop-color="#487c44"/><stop offset="0.25" stop-color="#669547"/><stop offset="0.55" stop-color="#84af4a"/><stop offset="0.81" stop-color="#96be4c"/><stop offset="1" stop-color="#9dc44d"/></linearGradient><linearGradient id="linear-gradient-3" x1="38.39" y1="104.76" x2="51.7" y2="92.9" gradientUnits="userSpaceOnUse"><stop offset="0" stop-color="#487c44"/><stop offset="0.09" stop-color="#568845"/><stop offset="0.34" stop-color="#75a249"/><stop offset="0.57" stop-color="#8bb54b"/><stop offset="0.8" stop-color="#98c04d"/><stop offset="1" stop-color="#9dc44d"/></linearGradient></defs><g id="Layer_2" data-name="Layer 2"><g id="Layer_1-2" data-name="Layer 1"><path class="cls-1" d="M9.4,120.83a1.31,1.31,0,0,1-.17.71,1.35,1.35,0,0,1-.46.46,2.51,2.51,0,0,1-.65.25,3.84,3.84,0,0,1-.76.07A2.19,2.19,0,0,1,6.18,122a2.91,2.91,0,0,1-.83-.81l.93-.55a1.21,1.21,0,0,0,.2.26,1.31,1.31,0,0,0,.25.22,1.77,1.77,0,0,0,.31.15,1,1,0,0,0,.33.06h.31l.32-.07a.87.87,0,0,0,.25-.15.33.33,0,0,0,.1-.24.36.36,0,0,0-.08-.23.67.67,0,0,0-.23-.16,1.27,1.27,0,0,0-.33-.12l-.41-.1c-.19,0-.39-.1-.6-.16a2.18,2.18,0,0,1-.58-.26,1.54,1.54,0,0,1-.44-.44,1.32,1.32,0,0,1-.17-.7,1.51,1.51,0,0,1,.15-.68,1.55,1.55,0,0,1,.41-.5,1.88,1.88,0,0,1,.58-.3,2.16,2.16,0,0,1,.66-.1,2.1,2.1,0,0,1,1.11.3,2.9,2.9,0,0,1,.83.77l-.88.6a1.18,1.18,0,0,0-.17-.24,1.7,1.7,0,0,0-.24-.22,1.08,1.08,0,0,0-.3-.16.88.88,0,0,0-.33-.06,1.24,1.24,0,0,0-.27,0,.66.66,0,0,0-.24.11.42.42,0,0,0-.18.17.37.37,0,0,0-.07.23.26.26,0,0,0,.07.19.7.7,0,0,0,.21.14,2.09,2.09,0,0,0,.3.11l.37.1.64.18a2.43,2.43,0,0,1,.61.28,1.52,1.52,0,0,1,.45.46A1.33,1.33,0,0,1,9.4,120.83Z"/><path class="cls-1" d="M13.36,117.12a2.44,2.44,0,0,1,1,.21,2.64,2.64,0,0,1,.83.56,2.61,2.61,0,0,1,.55.83,2.42,2.42,0,0,1,.21,1,2.45,2.45,0,0,1-.21,1,2.63,2.63,0,0,1-1.39,1.39,2.59,2.59,0,0,1-1,.2,2.52,2.52,0,0,1-1-.21,2.64,2.64,0,0,1-.83-.56,2.61,2.61,0,0,1-.55-.83,2.53,2.53,0,0,1,0-2,2.7,2.7,0,0,1,.56-.83,2.82,2.82,0,0,1,.83-.56A2.6,2.6,0,0,1,13.36,117.12Zm0,4.23a1.38,1.38,0,0,0,.6-.13,1.72,1.72,0,0,0,.49-.36,1.77,1.77,0,0,0,.33-.52,1.64,1.64,0,0,0,0-1.23,1.65,1.65,0,0,0-.33-.52,1.9,1.9,0,0,0-.49-.35,1.38,1.38,0,0,0-.6-.13,1.32,1.32,0,0,0-.6.13,1.8,1.8,0,0,0-.5.35,1.65,1.65,0,0,0-.33.52,1.64,1.64,0,0,0,0,1.23,1.77,1.77,0,0,0,.33.52,1.64,1.64,0,0,0,.5.36A1.32,1.32,0,0,0,13.36,121.35Z"/><path class="cls-1" d="M20.63,121.2v1H17.48v-4.93h1v3.94Z"/><path class="cls-1" d="M25.06,121.36H23.22l-.27.83H21.81l1.69-4.93h1.29l1.68,4.93H25.34Zm-.32-1-.6-1.83-.6,1.83Z"/><path class="cls-1" d="M30.73,122.19l-1-1.52H29v1.52H27.9v-4.93H30a1.57,1.57,0,0,1,.65.13,1.72,1.72,0,0,1,.55.37,1.91,1.91,0,0,1,.37.54,1.59,1.59,0,0,1,.13.66,1.7,1.7,0,0,1-.24.89,1.73,1.73,0,0,1-.65.61L32,122.19Zm-.82-2.51a.81.81,0,0,0,.27-.05.63.63,0,0,0,.23-.16.76.76,0,0,0,.15-.23.64.64,0,0,0,.06-.28.63.63,0,0,0-.06-.27.76.76,0,0,0-.15-.23.63.63,0,0,0-.23-.16.62.62,0,0,0-.27,0H29v1.43Z"/><path class="cls-1" d="M36.88,118.25H35.45v3.94H34.39v-3.94H33v-1h3.92Z"/><path class="cls-1" d="M41.43,121.2v1H38.31v-4.93h3.07v1h-2v1h1.53v1H39.35v1Z"/><path class="cls-1" d="M47.19,121.2a3,3,0,0,1-.88.82,2.18,2.18,0,0,1-1.15.31,2.6,2.6,0,0,1-1-.2,2.77,2.77,0,0,1-.82-.56,2.48,2.48,0,0,1-.56-.83,2.45,2.45,0,0,1-.21-1,2.59,2.59,0,0,1,.2-1,2.79,2.79,0,0,1,.55-.83,2.64,2.64,0,0,1,.83-.56,2.52,2.52,0,0,1,1-.21,2.19,2.19,0,0,1,1.12.28,2.79,2.79,0,0,1,.86.79l-.88.6a1.57,1.57,0,0,0-.19-.26,1.7,1.7,0,0,0-.24-.22,1.4,1.4,0,0,0-.3-.15,1.11,1.11,0,0,0-.37,0,1.38,1.38,0,0,0-.6.13,1.75,1.75,0,0,0-.49.35,1.49,1.49,0,0,0-.33.52,1.64,1.64,0,0,0,0,1.23,1.45,1.45,0,0,0,.33.51,1.6,1.6,0,0,0,.49.36,1.38,1.38,0,0,0,.6.13,1.07,1.07,0,0,0,.64-.19,1.48,1.48,0,0,0,.46-.5Z"/><path class="cls-1" d="M50.13,119.53V120H48.39v-.46Z"/><path class="cls-1" d="M56.54,119.53v.19a2.6,2.6,0,0,1-.73,1.84,2.41,2.41,0,0,1-.8.56,2.44,2.44,0,0,1-1,.21,2.64,2.64,0,0,1-1-.2,2.82,2.82,0,0,1-.83-.56,2.48,2.48,0,0,1-.56-.83,2.45,2.45,0,0,1-.21-1,2.59,2.59,0,0,1,.2-1,2.64,2.64,0,0,1,.56-.83,2.63,2.63,0,0,1,1.85-.77,2.19,2.19,0,0,1,1.12.28,2.71,2.71,0,0,1,.87.79l-.86.58-.2-.24a2.75,2.75,0,0,0-.26-.22,1.57,1.57,0,0,0-.32-.15,1,1,0,0,0-.35,0,1.38,1.38,0,0,0-.6.13,1.75,1.75,0,0,0-.49.35,1.65,1.65,0,0,0-.33.52,1.64,1.64,0,0,0,0,1.23,1.68,1.68,0,0,0,.82.87,1.38,1.38,0,0,0,.6.13,1.31,1.31,0,0,0,.8-.25,1.55,1.55,0,0,0,.52-.64H54v-.92Z"/><path class="cls-1" d="M61.24,121.2v1H58.12v-4.93H61.2v1h-2v1h1.53v1H59.16v1Z"/><path class="cls-1" d="M65.53,122.19l-1-1.52h-.77v1.52H62.7v-4.93h2.12a1.65,1.65,0,0,1,.66.13,1.68,1.68,0,0,1,.54.37,1.58,1.58,0,0,1,.37.54,1.59,1.59,0,0,1,.14.66,1.7,1.7,0,0,1-.25.89,1.66,1.66,0,0,1-.65.61l1.13,1.73Zm-.82-2.51a.87.87,0,0,0,.28-.05.6.6,0,0,0,.22-.16.63.63,0,0,0,.16-.23.82.82,0,0,0,0-.28.81.81,0,0,0,0-.27.63.63,0,0,0-.16-.23.6.6,0,0,0-.22-.16.66.66,0,0,0-.28,0h-.95v1.43Z"/><path class="cls-1" d="M73.24,117.26v4.93H72.18v-3.11l-1.45,2-1.46-2v3.11h-1v-4.93h1l1.46,2,1.45-2Z"/><path class="cls-1" d="M77.92,121.36H76.07l-.26.83H74.67l1.69-4.93h1.28l1.69,4.93H78.19Zm-.32-1-.6-1.83-.6,1.83Z"/><path class="cls-1" d="M83.88,122.19l-2.1-2.92v2.92H80.72v-4.93h1l2.11,2.93v-2.93h1v4.93Z"/><path class="cls-1" d="M90.53,117.26l-1.61,3.13v1.8H87.86v-1.8l-1.61-3.13h1.1l1,2.12,1-2.12Z"/><path class="cls-1" d="M20.14,55.76a35.3,35.3,0,0,0,10.52,14.6,29.28,29.28,0,0,0,10.68,5.51,26.42,26.42,0,0,0,11.89.48,29.13,29.13,0,0,0,16.69-9.71h0a6.07,6.07,0,0,0,.45-.64,17.29,17.29,0,0,1-4.08.89c-4.78.08-9.06-1.83-13.14-4.44-1.35-.86-1.32-.93-2.06.63,0,0-.1.06-.22.12A21.42,21.42,0,0,0,49.24,61a33.12,33.12,0,0,0-6.49-4.86c-.61-.34-1.22-.65-1.82-1s-.77-.16-.82.48-.24.88-.8.46c-4.71-3.5-9.82-3.78-15.13-2.48-1.19.29-2.36.67-3.54,1a.81.81,0,0,0-.25.09C20,54.85,19.89,55.15,20.14,55.76Z"/><path class="cls-2" d="M49.24,61a20.81,20.81,0,0,1,1.64,2.24c.12-.06.2-.07.22-.12.74-1.56.71-1.49,2.06-.63,4.09,2.62,8.36,4.52,13.14,4.44A18,18,0,0,0,70.39,66a35.21,35.21,0,0,0,6.76-12c.17-.49.1-.68-.37-.78-1.49-.34-2.27.1-2.94,1.7-.35.82-.42,2-1.11,2.33s-1.45-.24-2.19-.41a26.69,26.69,0,0,0-8.72-.59,18.25,18.25,0,0,0-2.91.57c-1.07.27-1.1.43-.48,1.49.1.17.21.34.39.62A10.74,10.74,0,0,0,49.24,61Z"/><path class="cls-3" d="M20.14,55.76a35.3,35.3,0,0,0,10.52,14.6,29.28,29.28,0,0,0,10.68,5.51,26.42,26.42,0,0,0,11.89.48,29.13,29.13,0,0,0,16.69-9.71C47.4,77.8,26.2,60.17,20.39,54.67,20,54.85,19.89,55.15,20.14,55.76Z"/><path class="cls-1" d="M86.93,52.7c3.2-1.47,6.42-2.87,9.6-4.34-3.21-1.47-6.45-2.89-9.66-4.36a7.57,7.57,0,0,1-3.06-2.3A4,4,0,0,1,83.67,38a40.63,40.63,0,0,1,3.11-5.63c-2.49-.7-5.13-1.07-7.37-2.44a4,4,0,0,1-1.27-1.83,7.07,7.07,0,0,1,.48-4c1.23-3.33,2.54-6.64,3.76-10-3.14,1.24-6.31,2.4-9.46,3.61-1.46.52-3.08,1.08-4.63.61a3.71,3.71,0,0,1-2.12-2c-1-2.06-1.36-4.38-2-6.57a36.67,36.67,0,0,1-5.69,3.14A3.85,3.85,0,0,1,55,12.84a8.28,8.28,0,0,1-2.67-3.67Q50.27,4.58,48.2,0L44.05,9.24a8.15,8.15,0,0,1-2.64,3.61,3.87,3.87,0,0,1-3.45.08,36.37,36.37,0,0,1-5.7-3.15c-.72,2.32-1,4.81-2.23,7a3.36,3.36,0,0,1-2.49,1.78,9.22,9.22,0,0,1-4.28-.82c-3.08-1.19-6.17-2.33-9.24-3.53,1.2,3.25,2.46,6.48,3.68,9.73A7.93,7.93,0,0,1,18.31,28a3.81,3.81,0,0,1-2.25,2.51,38.67,38.67,0,0,1-6.43,1.92c1.22,2.19,2.84,4.23,3.4,6.71a3.82,3.82,0,0,1-.84,3.23,17.72,17.72,0,0,1-2.46,1.58Q4.89,46.13,0,48.28a5.28,5.28,0,0,0,1.09.66c2.6,1.13,5.17,2.32,7.75,3.46a8.55,8.55,0,0,1,3.83,2.74c.79,1.29.36,2.89-.17,4.19-.84,1.73-1.9,3.34-2.87,5,2.2.63,4.51,1,6.57,2a3.72,3.72,0,0,1,1.95,2c.56,1.42.07,3-.38,4.34-1.23,3.32-2.51,6.62-3.75,9.92,3.63-1.31,7.19-2.82,10.86-4l.19-.05a7.3,7.3,0,0,1,2.28-.25,2.79,2.79,0,0,1,1.23.33,4.3,4.3,0,0,1,1.81,2.15,43.42,43.42,0,0,1,1.85,6.24,54.78,54.78,0,0,1,5-2.83,19.78,19.78,0,0,0-6.81-7.87,32,32,0,1,1,35.72,0,20.05,20.05,0,0,0-6.87,7.94,55.73,55.73,0,0,1,4.87,2.79c.87-2.67,1-5.76,3-7.92,1.38-1.36,3.46-1.19,5-.63.92.33,7.12,3,10.19,4.15-.95-2.47-4.33-11.2-4.38-12.86a3.38,3.38,0,0,1,1.68-3c2.15-1.3,4.71-1.61,7.09-2.3-.83-1.42-1.72-2.8-2.5-4.25s-1.28-2.89-.81-4.4S85.56,53.37,86.93,52.7Z"/><polygon class="cls-1" points="47.73 35.39 47.8 35.2 52.12 23.75 43.21 35.2 40.54 38.63 48.63 38.63 48.56 38.82 44.24 50.27 53.15 38.82 55.83 35.39 47.73 35.39"/><rect class="cls-4" x="38.18" y="87.85" width="19.84" height="3.17" rx="1.44"/><path class="cls-5" d="M58,94.36v.15c0,5-4.36,9.11-9.82,9.15s-10-4-10-9v-.33a1.28,1.28,0,0,1,1.33-1.22H56.66A1.31,1.31,0,0,1,58,94.36Z"/></g></g></svg>