<svg xmlns="http://www.w3.org/2000/svg" viewBox="0 0 66.84 126.08"><defs><style>.cls-1,.cls-2{fill:#757456;}.cls-2{font-size:19.13px;font-family:BodoniMT-Bold, Bodoni MT;font-weight:700;}.cls-3{letter-spacing:-0.03em;}.cls-4{letter-spacing:0.04em;}.cls-5{letter-spacing:0em;}</style></defs><g id="Layer_2" data-name="Layer 2"><g id="Layer_1-2" data-name="Layer 1"><path class="cls-1" d="M.18,0Q30.06,0,60,0a59.86,59.86,0,0,1-.11,7.81C40,7.72,20.07,7.86.17,7.74.23,5.17.22,2.59.18,0Z"/><path class="cls-1" d="M5.49,11.11a32.41,32.41,0,0,1,3.68-.2c15.12.1,30.24-.1,45.35.09,0,2.57-.05,5.15-.06,7.72-2.73.06-5.47.05-8.19,0,0,6.73,0,13.47,0,20.2.13,1.23-.92,2-1.62,2.87-2,2.11-3.9,4.36-6,6.45,0-9.83,0-19.66,0-29.48a45.37,45.37,0,0,0-4.81.07c.14,10.63,0,21.25,0,31.88-.1,1.07.29,2.45-.68,3.24-2.33,2.38-4.62,4.8-7,7.15-.19-14.12,0-28.24-.09-42.36-1.51,0-3,0-4.51-.05-.17,15.86-.3,31.74,0,47.6-2.67,3.12-5.07,6.48-7.84,9.51,0-19,0-38,0-57-2.68-.17-5.39.22-8-.17C5.25,16.14,5.64,13.6,5.49,11.11Z"/><path class="cls-1" d="M66.39,21.75c-.47-3.33-1.25-6.61-1.72-9.93-1.93,15.58-12.8,27.81-23,38.9C27.86,64.66,13.38,78.89,5.77,97.36c-.19.49-.38,1-.56,1.5a25.44,25.44,0,0,1,2.55,1c.11-.22.2-.44.31-.65A49.08,49.08,0,0,0,25.4,95.77,38.1,38.1,0,0,0,39.05,87.9c-6.31,2-13,2-19.51,1.38C24.6,87.83,30,88.49,35,86.92c2.54-.8,5.44-1,7.47-2.89,3.78-3.42,6.25-8,9.86-11.56C48.53,72.77,44.83,74,41,74a70.37,70.37,0,0,1-8.34-.28,11.33,11.33,0,0,0,3.11-1A66.2,66.2,0,0,0,52,70.35a5.84,5.84,0,0,0,3.09-2.54c2.73-4,5.14-8.24,7.47-12.5-5.41,2.46-11.65,4-17.58,2.83,6.33-1.06,13-2.24,18.48-5.63A86.29,86.29,0,0,0,66.39,21.75Z"/><text class="cls-2" transform="translate(0 121.16)">l<tspan class="cls-3" x="5.18" y="0">a</tspan><tspan x="14.03" y="0">w fi</tspan><tspan class="cls-4" x="43.43" y="0">r</tspan><tspan class="cls-5" x="51.3" y="0">m</tspan></text></g></g></svg>