<svg xmlns="http://www.w3.org/2000/svg" xmlns:xlink="http://www.w3.org/1999/xlink" viewBox="0 0 137.08 94.77"><defs><style>.cls-1{fill:#151c33;}.cls-2{fill:#d60b51;}.cls-3{fill:url(#linear-gradient);}.cls-4{fill:url(#linear-gradient-2);}.cls-5{fill:url(#linear-gradient-3);}.cls-6{fill:#34b7ea;}.cls-7{fill:url(#linear-gradient-4);}.cls-8{fill:url(#linear-gradient-5);}.cls-9{fill:url(#linear-gradient-6);}</style><linearGradient id="linear-gradient" x1="106.1" y1="47.19" x2="119.18" y2="57.84" gradientUnits="userSpaceOnUse"><stop offset="0" stop-color="#fff" stop-opacity="0"/><stop offset="1" stop-color="#fff" stop-opacity="0.4"/></linearGradient><linearGradient id="linear-gradient-2" x1="115.35" y1="11.1" x2="125.45" y2="18.95" xlink:href="#linear-gradient"/><linearGradient id="linear-gradient-3" x1="119.06" y1="42.36" x2="102.8" y2="59.74" xlink:href="#linear-gradient"/><linearGradient id="linear-gradient-4" x1="975.44" y1="47.19" x2="988.53" y2="57.84" gradientTransform="matrix(-1, 0, 0, 1, 1006.43, 0)" xlink:href="#linear-gradient"/><linearGradient id="linear-gradient-5" x1="984.7" y1="11.1" x2="994.79" y2="18.95" gradientTransform="matrix(-1, 0, 0, 1, 1006.43, 0)" xlink:href="#linear-gradient"/><linearGradient id="linear-gradient-6" x1="988.41" y1="42.36" x2="972.15" y2="59.74" gradientTransform="matrix(-1, 0, 0, 1, 1006.43, 0)" xlink:href="#linear-gradient"/></defs><g id="Layer_2" data-name="Layer 2"><g id="Layer_1-2" data-name="Layer 1"><path class="cls-1" d="M28.67,92.59v2h-6.8V84.38h2.29v8.21Z"/><path class="cls-1" d="M39.54,89.47a6.21,6.21,0,0,1-.39,2.29,4.62,4.62,0,0,1-1.07,1.66,4.2,4.2,0,0,1-1.61,1,5.72,5.72,0,0,1-2,.34,5.59,5.59,0,0,1-2-.34,4.44,4.44,0,0,1-1.61-1,4.53,4.53,0,0,1-1.09-1.66,6.2,6.2,0,0,1-.4-2.29,6,6,0,0,1,.41-2.3,5.08,5.08,0,0,1,1.11-1.67,4.56,4.56,0,0,1,1.62-1,5.41,5.41,0,0,1,1.93-.34,5.59,5.59,0,0,1,2,.34,4.44,4.44,0,0,1,1.61,1,4.75,4.75,0,0,1,1.09,1.67A6.22,6.22,0,0,1,39.54,89.47Zm-7.77,0A4.69,4.69,0,0,0,32,90.82a3,3,0,0,0,.53,1,2.38,2.38,0,0,0,.84.67,2.85,2.85,0,0,0,2.29,0,2.33,2.33,0,0,0,.85-.67,3,3,0,0,0,.53-1,4.69,4.69,0,0,0,.18-1.35A4.76,4.76,0,0,0,37,88.11a2.92,2.92,0,0,0-.53-1,2.23,2.23,0,0,0-.85-.67,2.85,2.85,0,0,0-2.29,0,2.52,2.52,0,0,0-.84.68,3.09,3.09,0,0,0-.53,1A4.79,4.79,0,0,0,31.77,89.47Z"/><path class="cls-1" d="M44.12,94.56c-.4-.85-.8-1.74-1.2-2.66s-.77-1.83-1.12-2.73-.68-1.76-1-2.58-.55-1.56-.77-2.21h2.53c.19.59.4,1.23.63,1.91s.47,1.35.72,2l.69,1.94c.22.62.43,1.15.64,1.6.19-.45.4-1,.62-1.6s.47-1.26.71-1.94.48-1.35.71-2l.64-1.91h2.44c-.23.65-.49,1.39-.79,2.21s-.62,1.68-1,2.58S47.89,91,47.5,91.91s-.79,1.8-1.19,2.65Z"/><path class="cls-1" d="M51.68,94.56V84.38h6.88v1.93H54v2H58v1.88H54v2.45h4.92v1.92Z"/><path class="cls-1" d="M63.64,84.27a6.3,6.3,0,0,1,3.49.8,2.91,2.91,0,0,1,1.22,2.62,2.94,2.94,0,0,1-1.23,2.65,6.44,6.44,0,0,1-3.53.82h-.72v3.4H60.58v-10a12.78,12.78,0,0,1,1.59-.2Q63,84.27,63.64,84.27Zm.14,2-.49,0-.42,0V89.2h.72a4,4,0,0,0,1.79-.32A1.24,1.24,0,0,0,66,87.67a1.37,1.37,0,0,0-.16-.7,1.12,1.12,0,0,0-.44-.45,1.92,1.92,0,0,0-.7-.23A5,5,0,0,0,63.78,86.22Z"/><path class="cls-1" d="M70,94.56V84.38h6.87v1.93H72.33v2H76.4v1.88H72.33v2.45h4.92v1.92Z"/><path class="cls-1" d="M88.37,89.47A6.21,6.21,0,0,1,88,91.76a4.62,4.62,0,0,1-1.07,1.66,4.24,4.24,0,0,1-1.6,1,5.77,5.77,0,0,1-2,.34,5.63,5.63,0,0,1-2-.34,4.44,4.44,0,0,1-1.61-1,4.66,4.66,0,0,1-1.09-1.66,6.2,6.2,0,0,1-.4-2.29,5.83,5.83,0,0,1,.42-2.3,4.79,4.79,0,0,1,1.11-1.67,4.44,4.44,0,0,1,1.61-1,5.45,5.45,0,0,1,1.93-.34,5.59,5.59,0,0,1,2,.34,4.48,4.48,0,0,1,1.62,1A4.73,4.73,0,0,1,88,87.17,6,6,0,0,1,88.37,89.47Zm-7.77,0a4.69,4.69,0,0,0,.18,1.35,3.23,3.23,0,0,0,.53,1,2.33,2.33,0,0,0,.85.67,2.58,2.58,0,0,0,1.14.24,2.64,2.64,0,0,0,1.14-.24,2.33,2.33,0,0,0,.85-.67,3,3,0,0,0,.53-1A4.69,4.69,0,0,0,86,89.47a4.76,4.76,0,0,0-.18-1.36,2.92,2.92,0,0,0-.53-1,2.23,2.23,0,0,0-.85-.67,2.64,2.64,0,0,0-1.14-.24,2.58,2.58,0,0,0-1.14.24,2.46,2.46,0,0,0-.85.68,3.29,3.29,0,0,0-.53,1A4.79,4.79,0,0,0,80.6,89.47Z"/><path class="cls-1" d="M93.33,84.27a6.34,6.34,0,0,1,3.5.8,3.44,3.44,0,0,1,0,5.27,6.38,6.38,0,0,1-3.52.82h-.72v3.4H90.28v-10a12.86,12.86,0,0,1,1.58-.2Q92.7,84.27,93.33,84.27Zm.15,2-.49,0-.42,0V89.2h.72a4,4,0,0,0,1.79-.32,1.25,1.25,0,0,0,.6-1.21,1.48,1.48,0,0,0-.15-.7,1.12,1.12,0,0,0-.44-.45,2,2,0,0,0-.7-.23A5.1,5.1,0,0,0,93.48,86.22Z"/><path class="cls-1" d="M106.54,92.59v2h-6.8V84.38H102v8.21Z"/><path class="cls-1" d="M108,94.56V84.38h6.88v1.93h-4.59v2h4.07v1.88h-4.07v2.45h4.92v1.92Z"/><path class="cls-2" d="M70.45,75.44,92.3,53.59A15.4,15.4,0,1,0,69.05,33.94c1-11.42,29.77-24.79,46.11,4.22C123.09,35.52,135.64,21,135,13.28,143.73,24.17,125.73,79.66,70.45,75.44Z"/><path class="cls-3" d="M76.36,74.92c-1.38,0-2.79,0-4.21-.12L92.83,54.12A16.15,16.15,0,1,0,71.28,30.06c3-4.54,10-8.61,18.13-8.61,10,0,18.9,6.06,25.1,17.07l.31.54.58-.19c7.47-2.49,18.46-14.65,20.14-23,1.69,4.86.87,14.2-4.24,24.85a61.22,61.22,0,0,1-19.48,23.33C101.71,71.27,89.78,74.92,76.36,74.92Z"/><path class="cls-2" d="M127.88,11.72a11.73,11.73,0,1,0-11.73,11.73A11.73,11.73,0,0,0,127.88,11.72Z"/><path class="cls-4" d="M116.15,22.7a11,11,0,1,1,11-11A11,11,0,0,1,116.15,22.7Z"/><path class="cls-5" d="M135.54,15.9a26.32,26.32,0,0,1-4.25,9,50.66,50.66,0,0,1-4.83,15.84A61.22,61.22,0,0,1,107,64.08a59.3,59.3,0,0,1-33,10.8c.8,0,1.6,0,2.39,0,13.42,0,25.35-3.65,35.46-10.84A61.22,61.22,0,0,0,131.3,40.75C136.41,30.1,137.23,20.76,135.54,15.9Z"/><path class="cls-6" d="M66.63,75.44,44.79,53.59A15.4,15.4,0,1,1,68,33.94c-1-11.42-29.77-24.79-46.12,4.22C14,35.52,1.44,21,2.1,13.28-6.65,24.17,11.35,79.66,66.63,75.44Z"/><path class="cls-7" d="M60.73,74.92c1.38,0,2.79,0,4.21-.12L44.26,54.12A16.15,16.15,0,1,1,65.81,30.06c-3-4.54-10-8.61-18.13-8.61-10,0-18.9,6.06-25.11,17.07l-.3.54-.59-.19c-7.46-2.49-18.45-14.65-20.13-23C-.14,20.76.68,30.1,5.79,40.75A61.22,61.22,0,0,0,25.27,64.08C35.38,71.27,47.3,74.92,60.73,74.92Z"/><path class="cls-6" d="M9.21,11.72A11.73,11.73,0,1,1,20.93,23.45,11.72,11.72,0,0,1,9.21,11.72Z"/><path class="cls-8" d="M20.93,22.7a11,11,0,1,0-11-11A11,11,0,0,0,20.93,22.7Z"/><path class="cls-9" d="M1.55,15.9a26.13,26.13,0,0,0,4.25,9,50.62,50.62,0,0,0,4.82,15.84A61.17,61.17,0,0,0,30.11,64.08a59.27,59.27,0,0,0,33,10.8c-.8,0-1.6,0-2.38,0-13.43,0-25.35-3.65-35.46-10.84A61.22,61.22,0,0,1,5.79,40.75C.68,30.1-.14,20.76,1.55,15.9Z"/></g></g></svg>