<svg xmlns="http://www.w3.org/2000/svg" xmlns:xlink="http://www.w3.org/1999/xlink" viewBox="0 0 102.33 112.05"><defs><style>.cls-1{fill:url(#linear-gradient);}.cls-2{fill:url(#linear-gradient-2);}.cls-3{fill:url(#linear-gradient-3);}.cls-4{fill:url(#linear-gradient-4);}.cls-5{fill:url(#linear-gradient-5);}.cls-6{fill:url(#linear-gradient-6);}.cls-7{fill:url(#linear-gradient-7);}.cls-8{fill:url(#linear-gradient-8);}.cls-9{fill:url(#linear-gradient-9);}.cls-10{fill:url(#linear-gradient-10);}.cls-11{fill:url(#linear-gradient-11);}.cls-12{fill:url(#linear-gradient-12);}</style><linearGradient id="linear-gradient" x1="123.03" y1="99.21" x2="-0.13" y2="104.09" gradientUnits="userSpaceOnUse"><stop offset="0" stop-color="#f25c05"/><stop offset="0.11" stop-color="#f26005"/><stop offset="0.59" stop-color="#f26f05"/><stop offset="1" stop-color="#f27405"/></linearGradient><linearGradient id="linear-gradient-2" x1="123.17" y1="102.75" x2="0.01" y2="107.63" xlink:href="#linear-gradient"/><linearGradient id="linear-gradient-3" x1="123.18" y1="103.07" x2="0.03" y2="107.95" xlink:href="#linear-gradient"/><linearGradient id="linear-gradient-4" x1="123.19" y1="103.32" x2="0.04" y2="108.19" xlink:href="#linear-gradient"/><linearGradient id="linear-gradient-5" x1="123.13" y1="101.73" x2="-0.03" y2="106.61" xlink:href="#linear-gradient"/><linearGradient id="linear-gradient-6" x1="123.22" y1="104.08" x2="0.07" y2="108.96" xlink:href="#linear-gradient"/><linearGradient id="linear-gradient-7" x1="123.24" y1="104.46" x2="0.08" y2="109.33" xlink:href="#linear-gradient"/><linearGradient id="linear-gradient-8" x1="123.22" y1="103.9" x2="0.06" y2="108.78" xlink:href="#linear-gradient"/><linearGradient id="linear-gradient-9" x1="123.28" y1="105.5" x2="0.12" y2="110.37" xlink:href="#linear-gradient"/><linearGradient id="linear-gradient-10" x1="123.29" y1="105.86" x2="0.14" y2="110.74" xlink:href="#linear-gradient"/><linearGradient id="linear-gradient-11" x1="122.5" y1="84.67" x2="-0.71" y2="89.55" xlink:href="#linear-gradient"/><linearGradient id="linear-gradient-12" x1="120.64" y1="38.95" x2="-2.51" y2="43.83" xlink:href="#linear-gradient"/></defs><g id="Layer_2" data-name="Layer 2"><g id="Layer_1-2" data-name="Layer 1"><path class="cls-1" d="M7.38,102.56l.33.15.35.15.73.37a7.69,7.69,0,0,1,1.46,1,4.38,4.38,0,0,1,.16,6.63,5.79,5.79,0,0,1-3.9,1.23,7.56,7.56,0,0,1-3.43-.81A8,8,0,0,1,2,110.59c-.13-.09-.24-.19-.36-.28l-.23-.2c-.08-.07-.08-.14,0-.22l1.31-1.23a.14.14,0,0,1,.21,0l.17.15.25.18a5.35,5.35,0,0,0,3.13,1c2.16,0,3.25-.83,3.25-2.47a2.16,2.16,0,0,0-.83-1.67,10.07,10.07,0,0,0-2.4-1.35l0,0L6,104.19l-.29-.13-.31-.13-.67-.34a7.08,7.08,0,0,1-1.31-.86,4,4,0,0,1-.14-6A5.29,5.29,0,0,1,6.78,95.6a6.87,6.87,0,0,1,3.06.71,6.25,6.25,0,0,1,.95.59,2.43,2.43,0,0,1,.32.24l.21.19c.08.07.08.14,0,.22l-.64.61-.66.62a.15.15,0,0,1-.21,0l-.14-.14-.22-.16a4.07,4.07,0,0,0-.65-.35,4.66,4.66,0,0,0-2-.45c-1.83,0-2.74.68-2.74,2a1.8,1.8,0,0,0,.7,1.41,8.86,8.86,0,0,0,2.08,1.14l0,0Z"/><path class="cls-2" d="M18.6,101.73a4.73,4.73,0,0,1,3.51,1.52,4.94,4.94,0,0,1,1.44,3.56v.65c0,.1,0,.15-.13.15l-7.59.66A3.29,3.29,0,0,0,17,109.6a3.1,3.1,0,0,0,1.73.51,3.21,3.21,0,0,0,1.55-.39,3.17,3.17,0,0,0,1.17-1.1.14.14,0,0,1,.21-.05l1.41.82a.14.14,0,0,1,.06.21,5.21,5.21,0,0,1-4.4,2.45,5.19,5.19,0,0,1-5.16-5.16A5.08,5.08,0,0,1,15,103.21,4.76,4.76,0,0,1,18.6,101.73Zm2.91,4.1a2.76,2.76,0,0,0-1.05-1.57,3,3,0,0,0-1.89-.6,2.9,2.9,0,0,0-2,.76,3.07,3.07,0,0,0-1,1.93Z"/><path class="cls-3" d="M28.33,102.41a4.07,4.07,0,0,1,2.22-.64,5.09,5.09,0,0,1,.69,0,.14.14,0,0,1,.12.18L31,103.6a.14.14,0,0,1-.17.12,1.56,1.56,0,0,0-.31,0,2.13,2.13,0,0,0-1.48.57,2.2,2.2,0,0,0-.74,1.4v6.23a.13.13,0,0,1-.15.15H26.52a.13.13,0,0,1-.15-.15V101.84a.13.13,0,0,1,.15-.15h1.66a.13.13,0,0,1,.15.15Z"/><path class="cls-4" d="M39.05,101.72a.13.13,0,0,1,.14-.09H41a.14.14,0,0,1,.12.06.13.13,0,0,1,0,.13l-3.74,10.09a.14.14,0,0,1-.15.1H35.91a.12.12,0,0,1-.13-.1L32,101.82a.15.15,0,0,1,0-.13.14.14,0,0,1,.12-.06H34a.14.14,0,0,1,.15.09l2.47,6.67Z"/><path class="cls-5" d="M44.3,99.84a1.06,1.06,0,0,1-.78-.32,1.11,1.11,0,0,1-.33-.8,1.11,1.11,0,1,1,2.21,0,1.1,1.1,0,0,1-.32.8A1.06,1.06,0,0,1,44.3,99.84Zm.82,1.89a.14.14,0,0,1,.15.15v10a.14.14,0,0,1-.15.15H43.48a.13.13,0,0,1-.15-.15v-10a.13.13,0,0,1,.15-.15Z"/><path class="cls-6" d="M52.4,110.12a3.16,3.16,0,0,0,1.69-.48.13.13,0,0,1,.2,0l.92,1.36a.12.12,0,0,1,0,.2,5.06,5.06,0,0,1-2.77.81A5.16,5.16,0,0,1,52,101.74a5,5,0,0,1,3.17.78.13.13,0,0,1,.05.22l-.92,1.36a.12.12,0,0,1-.19,0A3.22,3.22,0,0,0,52,103.7a3,3,0,0,0-1.87,1,3.19,3.19,0,0,0-.9,1.92,3.24,3.24,0,0,0,3.21,3.55Z"/><path class="cls-7" d="M61.76,101.73a4.69,4.69,0,0,1,3.5,1.52,4.91,4.91,0,0,1,1.45,3.56v.65c0,.1,0,.15-.14.15l-7.58.66a3.19,3.19,0,0,0,1.17,1.33,3.16,3.16,0,0,0,1.74.51,3.21,3.21,0,0,0,1.55-.39,3.17,3.17,0,0,0,1.17-1.1.14.14,0,0,1,.21-.05l1.41.82a.14.14,0,0,1,.06.21,5.15,5.15,0,0,1-8,.93,5,5,0,0,1-1.52-3.64,5.08,5.08,0,0,1,1.46-3.68A4.76,4.76,0,0,1,61.76,101.73Zm2.91,4.1a2.76,2.76,0,0,0-1.05-1.57,3,3,0,0,0-1.89-.6,2.9,2.9,0,0,0-2,.76,3.07,3.07,0,0,0-1,1.93Z"/><path class="cls-8" d="M78.36,110.05a.85.85,0,0,0,.86-.13.14.14,0,0,1,.2,0l1,1.31c.07.08.06.15,0,.2a3,3,0,0,1-1.71.57,2.45,2.45,0,0,1-1.16-.28,2.55,2.55,0,0,1-1.11-1,3.33,3.33,0,0,1-.39-1.61v-5.48H74.42a.13.13,0,0,1-.15-.15v-1.63a.13.13,0,0,1,.15-.15H76V99.53a.13.13,0,0,1,.15-.15h1.64a.13.13,0,0,1,.15.15v2.17H79.5a.13.13,0,0,1,.15.15v1.63a.13.13,0,0,1-.15.15H77.92v5.48A1,1,0,0,0,78.36,110.05Z"/><path class="cls-9" d="M90.12,107c0,.27,0,.46,0,.6,0,.66,0,1.46.14,2.4,0,.34.07.69.11,1s.07.54.11.8,0,.17-.15.17H88.66a.14.14,0,0,1-.15-.13c0-.28-.07-.57-.1-.86a4.21,4.21,0,0,1-2.78,1,3.76,3.76,0,0,1-2.59-.85,3.1,3.1,0,0,1-.93-2.38,2.85,2.85,0,0,1,1-2.22q1.48-1.32,5.08-1.09a2.32,2.32,0,0,0-.47-1.42,1.88,1.88,0,0,0-1.42-.43,3.47,3.47,0,0,0-1.38.27,3,3,0,0,0-.44.21,3.15,3.15,0,0,0-.27.19.12.12,0,0,1-.19,0l-1.22-1.12a.13.13,0,0,1,0-.22l.17-.14a1.79,1.79,0,0,1,.26-.2,5,5,0,0,1,.72-.41,5.39,5.39,0,0,1,2.35-.51,3.74,3.74,0,0,1,2.81,1,3.62,3.62,0,0,1,.9,1.86,9.2,9.2,0,0,1,.14,2.07C90.13,106.77,90.13,106.9,90.12,107Zm-4.49,3.08a2.82,2.82,0,0,0,.65-.08,2.48,2.48,0,0,0,.77-.36,3,3,0,0,0,1.11-2.23l-1,0a4.36,4.36,0,0,0-2.8.64,1,1,0,0,0-.31.76,1.33,1.33,0,0,0,.24.89A1.72,1.72,0,0,0,85.63,110.11Z"/><path class="cls-10" d="M97.47,110.12a3.11,3.11,0,0,0,1.69-.48.14.14,0,0,1,.21,0l.92,1.36c.06.08,0,.15-.05.2a5.14,5.14,0,0,1-6.49-.78,5.17,5.17,0,0,1,3.31-8.72,5,5,0,0,1,3.17.78.14.14,0,0,1,0,.22l-.92,1.36a.13.13,0,0,1-.2,0A3.2,3.2,0,0,0,97,103.7a3.22,3.22,0,0,0-1.94,5.36A3.06,3.06,0,0,0,97.47,110.12Z"/><rect class="cls-11" x="30.62" y="83.7" width="41.1" height="7.59" rx="3.45"/><path class="cls-12" d="M102.33,18.39C102.41,11,97.78,3.57,90.83.86c-3.52-1.45-7.41-.72-11-.27C58.93,3.6,38,6.35,17.09,9.25,8.73,10.64.52,17.12.07,26.06-.06,38.35,0,50.63,0,63,0,72.41,8.57,80.9,18,80.67c22.14,0,44.26,0,66.36,0,9.43.16,18-8.32,17.92-17.75C102.37,48.09,102.3,33.24,102.33,18.39Zm-10.18,40c0,7.12-6.8,13.55-14.36,13.42q-14.43,0-28.86,0l.12-24.43a2.47,2.47,0,0,1,1-2.09c2.6-2,4.08-5.51,2.22-8.58a6.13,6.13,0,1,0-10.2,6.78c1.08,1.52,2.78,2,2.78,4.12,0,0,0,19.11,0,24.2l-20.22,0a13.3,13.3,0,0,1-3.68-.43l.11-24a2.49,2.49,0,0,1,1-2.09c2.6-2,4.09-5.51,2.22-8.58A6.14,6.14,0,0,0,12.92,39,6.42,6.42,0,0,0,14,43.48c1.08,1.52,2.77,2,2.77,4.12,0,0,0,15,0,22-3.92-2.46-6.66-6.68-6.62-11.19,0-9.31-.07-18.6,0-27.89.36-6.75,7-11.65,13.64-12.71L31,16.86,30.9,42a2.46,2.46,0,0,1-1,2.08c-2.6,2-4.09,5.52-2.22,8.59A6.14,6.14,0,0,0,39,50.37a6.46,6.46,0,0,0-1.11-4.53c-1.08-1.52-2.78-2-2.78-4.12,0,0,0-24.27,0-25.39,13-1.67,26-3.31,39-5.08,2.91-.34,6-.9,8.85.2A14.27,14.27,0,0,1,92.17,24.7C92.15,35.93,92.2,47.15,92.15,58.39Z"/></g></g></svg>