<?xml version="1.0" encoding="UTF-8"?>
<svg version="1.1" xmlns="http://www.w3.org/2000/svg" width="1596" height="822">
<path d="M0 0 C8.47801377 5.876805 14.86314671 13.73147205 17.8125 23.6796875 C18.42621781 27.44890817 18.74778205 31.24199109 19.08422852 35.04418945 C20.08332814 45.74367907 23.69226247 55.88292976 31.66015625 63.4296875 C39.67295002 69.8016905 48.04236543 72.83867229 58.19943213 72.807338 C59.32641558 72.80981417 59.32641558 72.80981417 60.47616637 72.81234036 C63.01300814 72.81668044 65.54979229 72.81385931 68.08663559 72.81111526 C69.92391752 72.81276418 71.76119911 72.81485013 73.59848011 72.81733537 C78.68117189 72.82292104 83.76384688 72.82222614 88.84654076 72.82055778 C94.36333405 72.81982887 99.88012251 72.82484444 105.39691377 72.8291328 C116.35396028 72.83672686 127.31100193 72.83890657 138.2680508 72.83946185 C150.71319453 72.84032731 163.15833413 72.84633816 175.603476 72.85276783 C207.23145485 72.86907916 238.85943296 72.87545745 270.4874153 72.8802157 C286.23254381 72.88259789 301.9776719 72.88630115 317.72280008 72.8902528 C368.21295559 72.90291767 418.70311107 72.91370183 469.19326814 72.91709326 C471.60692145 72.9172555 474.02057475 72.91742106 476.43422805 72.91758764 C481.27494811 72.91792145 486.11566817 72.91825193 490.95638824 72.9185822 C496.62384529 72.9189691 502.29130235 72.91935871 507.95875941 72.91975327 C509.58083917 72.91986568 511.20291892 72.9199771 512.82499868 72.92008752 C564.93128449 72.92363769 617.03755651 72.9387189 669.14383706 72.96202526 C706.58048087 72.97876333 744.01712209 72.99424042 781.45376968 72.99876022 C782.22341753 72.99885371 782.99306539 72.9989472 783.7860359 72.99904351 C800.68046733 73.00106241 817.57489872 73.00221858 834.46933026 73.0025721 C840.51426764 73.00270828 846.55920503 73.00291727 852.60414241 73.00316535 C854.10801272 73.00322691 855.61188302 73.00328523 857.11575332 73.0033403 C881.09349112 73.00426066 905.07121454 73.01423539 929.04894761 73.02879779 C953.19522072 73.04340389 977.34147618 73.04846174 1001.48775292 73.04037825 C1016.47445595 73.0353659 1031.46110333 73.03841448 1046.4477991 73.05494334 C1056.00020618 73.06465642 1065.55257174 73.06355039 1075.1049784 73.05350711 C1080.5542792 73.04808848 1086.00346642 73.04748998 1091.45275804 73.06001583 C1096.40669386 73.0713085 1101.36042307 73.06888152 1106.31435154 73.05534875 C1108.09865539 73.05290612 1109.88297492 73.05552902 1111.66726153 73.06374523 C1114.08648344 73.07415589 1116.50497563 73.06608521 1118.92417121 73.05343366 C1119.95739067 73.0645464 1119.95739067 73.0645464 1121.01148324 73.07588365 C1128.42865989 72.99434803 1134.85629332 70.51606504 1140.27734375 65.453125 C1144.84100512 60.18110907 1145.96393653 54.39844259 1146.8125 47.6171875 C1147.874659 39.17438518 1150.2632661 33.13467299 1156.63549805 27.32446289 C1164.17118532 21.63107664 1173.20335083 21.04556506 1182.3125 21.1796875 C1183.36308594 21.16421875 1184.41367188 21.14875 1185.49609375 21.1328125 C1194.01477531 21.17493206 1201.37350657 22.9776915 1208.6875 27.4296875 C1215.29039748 34.42099071 1217.43057911 41.77963807 1218.6875 51.1796875 C1219.91611102 59.36730138 1222.56090606 63.99051265 1228.8359375 69.41796875 C1233.42726632 72.34879723 1238.23848354 72.92378548 1243.5625 73.4296875 C1251.42479409 74.51614375 1257.53930926 76.75721353 1262.72265625 82.96875 C1267.00851288 89.18982794 1267.95983791 93.88442494 1267.94672108 101.39625263 C1267.94907331 102.30217648 1267.95142554 103.20810033 1267.95384905 104.14147642 C1267.96055506 107.20527611 1267.96008034 110.26903354 1267.95967102 113.33283997 C1267.96296867 115.54046989 1267.96669403 117.74809921 1267.9708125 119.95572776 C1267.98085227 126.04456715 1267.98455248 132.13339669 1267.98720181 138.22224319 C1267.99069926 144.10790081 1267.99884613 149.99355087 1268.00674575 155.87920396 C1268.02760237 171.65466976 1268.03806281 187.43013744 1268.04687535 203.2056138 C1268.0510811 210.66940391 1268.05630326 218.13319321 1268.06155988 225.59698264 C1268.07945328 251.14766264 1268.09444816 276.69834287 1268.10188007 302.24902821 C1268.10235483 303.85355347 1268.10283072 305.45807873 1268.10330774 307.06260399 C1268.1036623 308.2561578 1268.1036623 308.2561578 1268.10402403 309.47382381 C1268.10522523 313.50525429 1268.10644067 317.53668476 1268.10766602 321.56811523 C1268.10790617 322.36816647 1268.10814632 323.16821772 1268.10839374 323.99251293 C1268.11628305 349.92010046 1268.13970563 375.84764219 1268.17222196 401.77520973 C1268.20653819 429.18806236 1268.226233 456.6008882 1268.22952431 484.01376265 C1268.22994185 487.02466978 1268.23042141 490.03557689 1268.23094749 493.04648399 C1268.23107069 493.78785238 1268.23119388 494.52922076 1268.2313208 495.29305486 C1268.23365089 507.21339938 1268.24930049 519.13369065 1268.26978934 531.05401621 C1268.29006955 543.04348931 1268.29551433 555.03289861 1268.28601871 567.02238569 C1268.28147239 573.51518564 1268.28337982 580.00781306 1268.30278015 586.50058937 C1268.32040071 592.44917678 1268.31942266 598.39746566 1268.30388286 604.34605619 C1268.30150512 606.49358052 1268.30583888 608.64112547 1268.31771151 610.7886183 C1268.42360915 631.21492102 1265.0586499 647.86774602 1250.453125 663.29296875 C1233.62515785 678.50286214 1214.86556307 680.47000118 1192.95361328 679.85888672 C1180.69440604 679.159504 1169.66131821 673.01847887 1160.8125 664.6796875 C1150.6970214 652.48546168 1146.92257215 640.18251684 1146.63671875 624.43359375 C1146.62468414 623.77381027 1146.61264954 623.11402679 1146.60025024 622.43424988 C1146.55182147 619.67742235 1146.50438585 616.92103809 1146.48657227 614.16381836 C1146.40932553 604.11580045 1145.22226176 596.89461725 1139.6875 588.4296875 C1132.27837901 581.34270221 1123.8625977 579.34772159 1113.9140625 579.46875 C1106.99426564 579.93936591 1101.37434268 582.10218635 1096.3125 586.90625 C1091.79806783 592.24362553 1090.6769472 597.92563631 1089.875 604.7421875 C1088.75834418 613.68506036 1085.48240631 618.64878037 1078.75390625 624.453125 C1072.38938729 628.47416917 1065.35477021 628.08501062 1058.09179688 628.10522461 C1056.08077552 628.11707976 1054.07287172 628.16629121 1052.0625 628.21679688 C1042.98927362 628.2665008 1035.86905687 627.15034446 1028.9140625 621.0012207 C1023.15495976 615.12061405 1021.94156479 608.02450348 1021 600.1171875 C1019.96699382 592.91973796 1017.55136627 588.54854835 1011.78125 584.12109375 C1005.72254561 580.13093955 1000.77619724 579.5163672 993.56640625 579.4765625 C992.75944809 579.47086243 991.95248993 579.46516235 991.12107849 579.45928955 C989.41056624 579.44985167 987.7000359 579.44331038 985.98950195 579.43945312 C983.41518716 579.42983761 980.84170262 579.39884164 978.26757812 579.3671875 C961.28527026 579.25561604 945.27026746 581.86070516 932.359375 593.97265625 C924.02374306 603.17132079 917.70571583 614.88992929 917.67446899 627.48187256 C917.66628899 629.26027275 917.66628899 629.26027275 917.65794373 631.07460022 C917.65638023 633.0210569 917.65638023 633.0210569 917.65478516 635.00683594 C917.65011445 636.39031637 917.64497046 637.77379528 917.63938904 639.15727234 C917.6281171 642.13704026 917.6196781 645.11679823 917.61326981 648.09658051 C917.60255801 652.82282695 917.58230018 657.54900257 917.56015015 662.27520752 C917.49834739 675.71550206 917.44438438 689.15579369 917.41113281 702.59619141 C917.39268775 710.01927585 917.36362256 717.4422426 917.3231281 724.86524034 C917.30220871 728.78594002 917.28662264 732.70649228 917.28432083 736.62725067 C917.28214612 740.32754421 917.26599565 744.02753182 917.23993111 747.7277317 C917.22950595 749.70460441 917.23344632 751.68153732 917.2381134 753.65843201 C917.06210741 773.00654766 912.90216033 788.78917431 898.8125 802.6796875 C898.24789063 803.25460937 897.68328125 803.82953125 897.1015625 804.421875 C885.45613303 815.3856208 871.19171078 817.27735861 855.96875 816.99609375 C849.73767891 816.72630643 844.44377661 815.36292902 838.8125 812.6796875 C838.03132813 812.3290625 837.25015625 811.9784375 836.4453125 811.6171875 C823.06940124 804.95237358 814.07192478 793.38087017 808.8125 779.6796875 C807.25822481 774.88749798 806.56118439 770.76288028 806.55421448 765.73054504 C806.55053877 765.06741183 806.54686307 764.40427861 806.54307598 763.72105044 C806.5331649 761.51813632 806.53723294 759.31547807 806.54125977 757.11254883 C806.53686859 755.52509292 806.53156502 753.93763931 806.52542114 752.35018921 C806.51394824 748.9399201 806.5084637 745.52971291 806.50753975 742.11942482 C806.50559257 736.71771773 806.48750262 731.31613782 806.46678162 725.91447449 C806.41767671 712.49510189 806.38675526 699.07569477 806.36547852 685.65625 C806.34892016 675.22958213 806.32600184 664.8030236 806.28245777 654.37642878 C806.26078117 649.01658485 806.25261425 643.65694912 806.25485051 638.29706442 C806.25317314 634.94876934 806.23905951 631.60060795 806.22163773 628.2523613 C806.21608076 626.71096337 806.21551328 625.16953722 806.22057533 623.62813759 C806.26154558 609.67986522 805.24094015 598.18563055 795.11328125 587.96484375 C788.44395967 581.83506279 781.7556188 580.31720279 773 579.3046875 C762.7086308 577.91767525 754.61286612 575.52966761 747.34765625 567.71484375 C742.66502007 561.50707416 739.69357506 554.72420137 739.67446899 546.95306396 C739.66901566 545.75897919 739.66356232 544.56489441 739.65794373 543.33462524 C739.6569014 542.0224704 739.65585907 540.71031555 739.65478516 539.35839844 C739.65011599 537.9635909 739.64497225 536.56878489 739.63938904 535.17398071 C739.6281061 532.16690972 739.6196724 529.15984864 739.61326981 526.15276337 C739.60257087 521.3848657 739.58231635 516.61703856 739.56015015 511.84918213 C739.49830453 498.28946198 739.44437572 484.72974449 739.41113281 471.16992188 C739.39269792 463.68313006 739.3636444 456.19645516 739.3231281 448.70974946 C739.30219062 444.75385537 739.28662002 440.79810784 739.28432083 436.84215546 C739.2821489 433.10904808 739.26602538 429.37624478 739.23993111 425.64323044 C739.2294859 423.64587835 739.23345113 421.64846648 739.2381134 419.65109253 C739.07745626 401.86737459 734.97626998 385.82046281 723.8125 371.6796875 C723.19375 370.8959375 722.575 370.1121875 721.9375 369.3046875 C711.45747285 356.79626799 696.73062485 349.58588079 680.8125 346.6796875 C675.42011433 346.26818055 670.04840841 346.27454631 664.64505863 346.30051327 C663.02678505 346.29718763 661.40851374 346.29254786 659.79024723 346.28672323 C655.35285049 346.27453234 650.91564726 346.28090285 646.47825105 346.29035244 C641.64704191 346.29731502 636.81586519 346.28682461 631.98466247 346.27855259 C623.52041787 346.26644574 615.05622823 346.26539875 606.59197807 346.27161217 C594.00529529 346.28078829 581.41866459 346.27275408 568.83198592 346.26111507 C547.65509824 346.24197941 526.4782278 346.23647063 505.30133247 346.23843193 C484.32506078 346.24027178 463.34880853 346.23505971 442.37254143 346.22075081 C441.06792791 346.21986093 439.7633144 346.21897105 438.41916714 346.21805421 C431.79335234 346.21348433 425.16753765 346.20876719 418.54172301 346.20397938 C405.06812669 346.19427991 391.59452975 346.18554001 378.12093258 346.17711735 C377.44682595 346.17669477 376.77271931 346.1762722 376.07818521 346.17583681 C344.00397993 346.15579066 311.92977299 346.14528699 279.8555629 346.13656505 C277.72773631 346.13598618 275.59990972 346.13540391 273.47208313 346.13482067 C266.36528871 346.1328738 259.25849429 346.13094168 252.15169987 346.12901828 C251.44703862 346.12882752 250.74237738 346.12863677 250.01636277 346.12844023 C246.45494703 346.12747683 242.89353129 346.12651703 239.33211555 346.12556297 C207.27296155 346.11696482 175.21380854 346.1060897 143.15465574 346.09383042 C141.02765563 346.09301779 138.90065552 346.0922093 136.7736554 346.09140136 C104.72938856 346.07920428 72.68512388 346.06490299 40.64086056 346.04546452 C39.63042449 346.04485326 39.63042449 346.04485326 38.59957557 346.04422965 C24.47576617 346.03568134 10.351957 346.02684093 -3.77185191 346.01750535 C-32.65956809 345.99850847 -61.54727037 345.98552775 -90.43499313 345.98451061 C-111.49141877 345.98371795 -132.54783271 345.9763341 -153.60425358 345.96198087 C-166.11690497 345.95370256 -178.62952849 345.95111445 -191.14218159 345.95653105 C-199.49893487 345.95961388 -207.85566458 345.95550623 -216.21241246 345.94555908 C-220.97454855 345.94010565 -225.7366281 345.93781906 -230.49876409 345.94437235 C-234.83492251 345.95028462 -239.17097374 345.94694803 -243.50712242 345.93638287 C-245.06217709 345.93419254 -246.61724105 345.935312 -248.17228944 345.94024026 C-272.26287324 346.01098297 -291.67891605 340.8427073 -309.1875 323.6796875 C-309.88875 323.01453125 -310.59 322.349375 -311.3125 321.6640625 C-315.67169855 317.20269523 -318.6752448 312.37904816 -321.5 306.8671875 C-321.98847412 305.92637329 -321.98847412 305.92637329 -322.48681641 304.96655273 C-327.74852456 294.14352279 -328.63053222 283.24845618 -328.57568359 271.37109375 C-328.57975878 269.87156799 -328.58510592 268.37204525 -328.59161377 266.87252808 C-328.60518079 262.83529537 -328.6000331 258.79829508 -328.59047651 254.76105881 C-328.5828244 250.51460951 -328.58994081 246.26817869 -328.59463501 242.02172852 C-328.60007652 234.89368151 -328.59294328 227.76572808 -328.57861328 220.63769531 C-328.56228986 212.42378902 -328.5675795 204.21010621 -328.5840925 195.99620533 C-328.5977533 188.91471108 -328.59960467 181.83328369 -328.59177649 174.75178051 C-328.58712512 170.53509552 -328.58640461 166.31851521 -328.59638596 162.10183716 C-328.60512062 158.13554671 -328.5989166 154.1695414 -328.58170319 150.2032814 C-328.57777274 148.75701493 -328.57881249 147.31072401 -328.58549118 145.86446762 C-328.63493132 134.06029996 -327.12033871 123.32082599 -321.6875 112.7421875 C-321.34565674 112.07251953 -321.00381348 111.40285156 -320.65161133 110.71289062 C-311.96360706 94.45058058 -297.75095389 82.60471286 -280.23046875 76.6796875 C-272.87004661 74.5853403 -265.71237924 73.55630406 -258.04853821 73.54838562 C-257.02321174 73.54521205 -257.02321174 73.54521205 -255.9771716 73.54197437 C-253.70522356 73.5360218 -251.4333318 73.53697111 -249.16137695 73.5378418 C-247.52466234 73.5348071 -245.88794857 73.53128479 -244.25123596 73.52731323 C-240.7345756 73.519447 -237.21792528 73.51428789 -233.70125771 73.51102257 C-228.13155168 73.50508982 -222.56190878 73.48852761 -216.99223328 73.46968079 C-215.0816584 73.46334397 -213.17108349 73.45701834 -211.26050854 73.45070362 C-210.30388801 73.44753781 -209.34726748 73.444372 -208.36165845 73.44111025 C-195.40298201 73.39911668 -182.44433569 73.36606947 -169.4855957 73.35375977 C-160.73345379 73.34536079 -151.98146924 73.32280402 -143.22940606 73.2844041 C-138.60461358 73.26470871 -133.98005596 73.25221721 -129.35521889 73.25723839 C-125.00069489 73.26190884 -120.64661548 73.24794965 -116.29218102 73.22022629 C-114.70241124 73.21335519 -113.11259509 73.21314353 -111.52282715 73.22042656 C-97.96508638 73.27622025 -86.29481065 71.4855873 -76.1875 61.6796875 C-68.14232254 53.18455605 -66.16353249 43.37734801 -64.75 32.1171875 C-63.17121318 19.82259963 -59.52877488 11.19098848 -50.1875 2.6796875 C-35.94589912 -7.74480719 -15.27894789 -9.2219364 0 0 Z " fill="#7A2BE1" transform="translate(328.1875,5.3203125)"/>
</svg>
