<svg width="50" height="52" viewBox="0 0 50 52" fill="none" xmlns="http://www.w3.org/2000/svg">
<path d="M21.0372 0.622559L39.6288 6.43085C40.1474 6.59273 40.6006 6.9161 40.9223 7.35378C41.244 7.79145 41.4174 8.32051 41.4172 8.86371V13.36H46.5122C47.1878 13.36 47.8358 13.6284 48.3135 14.1062C48.7913 14.5839 49.0597 15.2319 49.0597 15.9075V21.0025H15.9422V15.9075C15.9422 15.2319 16.2106 14.5839 16.6884 14.1062C17.1661 13.6284 17.8141 13.36 18.4897 13.36H36.3222V10.7361L21.0372 5.95702L5.75222 10.7361V29.5978C5.75186 31.1574 6.10951 32.6964 6.79762 34.096C7.48574 35.4956 8.48595 36.7186 9.72122 37.6708L10.2027 38.0173L21.0372 45.4075L30.6718 38.835H18.4897C17.8141 38.835 17.1661 38.5666 16.6884 38.0889C16.2106 37.6111 15.9422 36.9632 15.9422 36.2875V26.0975H49.0597V36.2875C49.0597 36.9632 48.7913 37.6111 48.3135 38.0889C47.8358 38.5666 47.1878 38.835 46.5122 38.835L38.3092 38.8376C37.3233 40.1368 36.126 41.2831 34.7427 42.2257L21.0372 51.5725L7.33167 42.2283C5.27462 40.8258 3.59131 38.942 2.42809 36.7407C1.26488 34.5395 0.656969 32.0875 0.657227 29.5978V8.86371C0.657534 8.32094 0.831187 7.79246 1.15287 7.3553C1.47456 6.91814 1.92746 6.59514 2.44557 6.4334L21.0372 0.622559Z" fill="url(#paint0_linear_282_405)"/>
<defs>
<linearGradient id="paint0_linear_282_405" x1="24.8584" y1="0.622556" x2="89.9957" y2="18.136" gradientUnits="userSpaceOnUse">
<stop stop-color="#AA9CFF"/>
<stop offset="0.609375" stop-color="#FFF06B" stop-opacity="0.59"/>
<stop offset="1" stop-color="#060ED0" stop-opacity="0.28"/>
</linearGradient>
</defs>
</svg>
