<svg width="32" height="32" viewBox="0 0 32 32" fill="none" xmlns="http://www.w3.org/2000/svg">
<g clip-path="url(#clip0_1_301)">
<path d="M8.80789 13.1624C9.88523 15.1102 11.1251 16.9846 12.7334 18.6934C14.349 20.4103 16.3496 21.9749 18.9509 23.3013L18.9535 23.3026L18.954 23.3013C19.1436 23.3984 19.324 23.396 19.4936 23.3322C19.7394 23.2398 19.9954 23.0346 20.2443 22.7862C20.4342 22.5962 20.6722 22.2827 20.9295 21.9427C21.9311 20.62 23.1693 18.985 24.9175 19.7984C24.9545 19.8154 24.9894 19.8353 25.0222 19.8576L30.8485 23.2212C30.8693 23.2333 30.8894 23.2461 30.9084 23.2597C31.6808 23.7926 31.9962 24.6133 31.9996 25.5322C32.0032 26.4799 31.6535 27.5407 31.147 28.4376C30.479 29.6198 29.4837 30.401 28.3446 30.9305C27.2587 31.4351 26.0535 31.7036 24.8897 31.8748C23.0696 32.1431 21.3537 31.9727 19.6063 31.432C17.9006 30.9041 16.1751 30.0226 14.2938 28.8514L14.1568 28.7661C13.2907 28.2269 12.3584 27.6469 11.4514 26.9591C8.10112 24.4178 4.6894 20.7503 2.47716 16.7253C0.614921 13.337 -0.404089 9.68258 0.15138 6.19801C0.455807 4.28587 1.27638 2.55013 2.69096 1.40038C3.93107 0.391963 5.6045 -0.154251 7.75555 0.0386379C8.00893 0.0606226 8.22247 0.205878 8.34278 0.410022L8.34435 0.409237L12.0746 6.76124C12.624 7.4726 12.685 8.17846 12.3878 8.88014C12.1423 9.46064 11.6347 9.99272 10.9618 10.4944C10.7571 10.6646 10.517 10.8412 10.2693 11.0234C9.43653 11.6361 8.48393 12.3367 8.80789 13.1624ZM11.6329 19.7398C9.9131 17.9124 8.60294 15.9338 7.47273 13.8885C7.45294 13.8563 7.43523 13.8222 7.42013 13.7864C6.59357 11.8342 8.07638 10.7439 9.37143 9.79198C9.59148 9.63024 9.8045 9.47346 9.99669 9.31329L9.99721 9.31408C10.0084 9.30465 10.0201 9.29549 10.0324 9.28659C10.5123 8.93222 10.8581 8.59382 10.9902 8.28237C11.0654 8.10466 11.0376 7.90915 10.8688 7.68957C10.8399 7.6558 10.8134 7.61864 10.7899 7.57886L7.23836 1.53176C5.70997 1.46869 4.52508 1.8775 3.64878 2.59017C2.54487 3.48761 1.89799 4.88259 1.65034 6.43722C1.15424 9.55015 2.09721 12.874 3.80971 15.9901C5.91336 19.8173 9.16779 23.3123 12.368 25.7392C13.248 26.4066 14.1326 26.957 14.9545 27.4684L15.0915 27.5538C16.867 28.659 18.4813 29.4868 20.0529 29.9731C21.5832 30.4466 23.0826 30.596 24.6699 30.362C25.7139 30.2084 26.7826 29.9734 27.7084 29.5431C28.5811 29.1374 29.3355 28.5525 29.8266 27.6838C30.2162 26.9937 30.4855 26.2043 30.4832 25.532C30.4816 25.1054 30.3602 24.7392 30.0652 24.5259L24.2709 21.1814C23.63 20.8984 22.805 21.9877 22.1373 22.8695C21.8498 23.2495 21.5839 23.6002 21.3154 23.8685C20.9308 24.2521 20.5035 24.5811 20.0233 24.7612C19.467 24.9703 18.8787 24.9795 18.2641 24.6644L18.2647 24.6633C15.5006 23.2539 13.3654 21.581 11.6329 19.7398Z" fill="white"/>
</g>
<defs>
<clipPath id="clip0_1_301">
<rect width="32" height="32" fill="white"/>
</clipPath>
</defs>
</svg>
