<svg width="50" height="49" viewBox="0 0 50 49" fill="none" xmlns="http://www.w3.org/2000/svg">
<g clip-path="url(#clip0_107_576)">
<path d="M18.4995 18.4187H30.7101V16.3836C30.7101 14.7644 30.0668 13.2115 28.9219 12.0665C27.7769 10.9216 26.224 10.2783 24.6048 10.2783C22.9856 10.2783 21.4327 10.9216 20.2877 12.0665C19.1427 13.2115 18.4995 14.7644 18.4995 16.3836V18.4187Z" fill="url(#paint0_linear_107_576)"/>
<path d="M15.4468 26.559H33.7626V24.5239H15.4468V26.559Z" fill="url(#paint1_linear_107_576)"/>
<path d="M33.7626 31.6469H15.4468V29.6118H33.7626V31.6469Z" fill="url(#paint2_linear_107_576)"/>
<path d="M15.4468 36.7348H33.7626V34.6997H15.4468V36.7348Z" fill="url(#paint3_linear_107_576)"/>
<path fill-rule="evenodd" clip-rule="evenodd" d="M0.183594 0.103027H49.0258V48.9452H0.183594V0.103027ZM11.3766 18.4189C10.8369 18.4189 10.3192 18.6333 9.93757 19.0149C9.55592 19.3966 9.34151 19.9142 9.34151 20.454V40.8049C9.34151 41.3446 9.55592 41.8623 9.93757 42.2439C10.3192 42.6256 10.8369 42.84 11.3766 42.84H37.8328C38.3725 42.84 38.8902 42.6256 39.2718 42.2439C39.6535 41.8623 39.8679 41.3446 39.8679 40.8049V20.454C39.8679 19.9142 39.6535 19.3966 39.2718 19.0149C38.8902 18.6333 38.3725 18.4189 37.8328 18.4189H34.7802V16.3838C34.7802 10.7639 30.2246 6.2083 24.6047 6.2083C18.9848 6.2083 14.4292 10.7639 14.4292 16.3838V18.4189H11.3766Z" fill="url(#paint4_linear_107_576)"/>
</g>
<defs>
<linearGradient id="paint0_linear_107_576" x1="24.6048" y1="10.2783" x2="39.5343" y2="16.6164" gradientUnits="userSpaceOnUse">
<stop stop-color="#FB03F5"/>
<stop offset="0.609375" stop-color="#253FE0" stop-opacity="0.619792"/>
<stop offset="1" stop-color="#060ED0" stop-opacity="0.28"/>
</linearGradient>
<linearGradient id="paint1_linear_107_576" x1="24.6047" y1="24.5239" x2="28.1343" y2="33.5145" gradientUnits="userSpaceOnUse">
<stop stop-color="#FB03F5"/>
<stop offset="0.609375" stop-color="#253FE0" stop-opacity="0.619792"/>
<stop offset="1" stop-color="#060ED0" stop-opacity="0.28"/>
</linearGradient>
<linearGradient id="paint2_linear_107_576" x1="24.6047" y1="29.6118" x2="28.1343" y2="38.6023" gradientUnits="userSpaceOnUse">
<stop stop-color="#FB03F5"/>
<stop offset="0.609375" stop-color="#253FE0" stop-opacity="0.619792"/>
<stop offset="1" stop-color="#060ED0" stop-opacity="0.28"/>
</linearGradient>
<linearGradient id="paint3_linear_107_576" x1="24.6047" y1="34.6997" x2="28.1343" y2="43.6903" gradientUnits="userSpaceOnUse">
<stop stop-color="#FB03F5"/>
<stop offset="0.609375" stop-color="#253FE0" stop-opacity="0.619792"/>
<stop offset="1" stop-color="#060ED0" stop-opacity="0.28"/>
</linearGradient>
<linearGradient id="paint4_linear_107_576" x1="24.6047" y1="0.103025" x2="89.8585" y2="18.5712" gradientUnits="userSpaceOnUse">
<stop stop-color="#FB03F5"/>
<stop offset="0.609375" stop-color="#253FE0" stop-opacity="0.619792"/>
<stop offset="1" stop-color="#060ED0" stop-opacity="0.28"/>
</linearGradient>
<clipPath id="clip0_107_576">
<rect width="48.8422" height="48.8422" fill="white" transform="translate(0.183594 0.103027)"/>
</clipPath>
</defs>
</svg>
