<svg width="35" height="35" viewBox="0 0 47 46" fill="none" xmlns="http://www.w3.org/2000/svg">
<path d="M16.1533 38.3335C18.9875 38.4283 21.8119 37.9541 24.4596 36.9388C27.1074 35.9234 29.5248 34.3876 31.5689 32.4222C33.613 30.4567 35.2423 28.1014 36.3607 25.4955C37.479 22.8895 38.0636 20.0859 38.08 17.2502C39.3788 15.6429 40.3433 13.7922 40.9166 11.8069C40.9594 11.65 40.956 11.4841 40.9067 11.3292C40.8574 11.1742 40.7644 11.0368 40.6388 10.9336C40.5132 10.8303 40.3605 10.7655 40.1989 10.747C40.0374 10.7285 39.874 10.7571 39.7283 10.8294C39.0488 11.1564 38.2838 11.2621 37.5411 11.1314C36.7984 11.0008 36.1154 10.6404 35.5883 10.101C34.9155 9.36421 34.1016 8.76995 33.1949 8.35346C32.2881 7.93696 31.3071 7.70669 30.3097 7.67631C29.3124 7.64592 28.3191 7.81604 27.3887 8.17657C26.4583 8.53709 25.6098 9.0807 24.8933 9.77519C23.9123 10.7252 23.1938 11.9128 22.8076 13.2226C22.4214 14.5325 22.3806 15.9199 22.6891 17.2502C16.2683 17.6335 11.86 14.586 8.33331 10.4077C8.22736 10.2877 8.08877 10.2012 7.93446 10.1587C7.78015 10.1161 7.61679 10.1195 7.46434 10.1683C7.31189 10.217 7.17695 10.3092 7.07599 10.4334C6.97503 10.5576 6.91242 10.7085 6.89581 10.8677C6.22396 14.5945 6.70861 18.4377 8.28466 21.881C9.86072 25.3243 12.4527 28.2029 15.7125 30.1302C13.5268 32.6369 10.4574 34.2025 7.14498 34.5002C6.96752 34.5296 6.8037 34.6138 6.67645 34.7409C6.5492 34.8681 6.46489 35.0318 6.43532 35.2093C6.40575 35.3867 6.43239 35.569 6.51153 35.7305C6.59066 35.892 6.71832 36.0248 6.87664 36.1102C9.75839 37.5503 12.9318 38.3109 16.1533 38.3335Z" fill="#0C3257"/>
</svg>
