<svg xmlns="http://www.w3.org/2000/svg" width="1441" height="1080" viewBox="0 0 1441 1080" fill="none">
<mask id="mask0_1_1095" style="mask-type:alpha" maskUnits="userSpaceOnUse" x="317" y="-223" width="807" height="1249">
<path d="M720.5 13.3467C585.096 13.3467 474.89 -92.6726 474.89 -222.933L317.02 -222.933C317.02 -8.85015 497.964 165.22 720.5 165.22C855.904 165.22 966.11 271.239 966.11 401.5C966.11 531.761 855.904 637.78 720.5 637.78C497.964 637.488 317.02 811.558 317.02 1025.64H474.89C474.89 895.381 585.096 789.361 720.5 789.361C943.036 789.361 1123.98 615.291 1123.98 401.208C1123.98 187.125 942.733 13.3467 720.5 13.3467Z" fill="url(#paint0_linear_1_1095)"/>
</mask>
<g mask="url(#mask0_1_1095)">
<g filter="url(#filter0_ii_1_1095)">
<path d="M720.5 13.3467C585.096 13.3467 474.89 -92.6726 474.89 -222.933L317.02 -222.933C317.02 -8.85015 497.964 165.22 720.5 165.22C855.904 165.22 966.11 271.239 966.11 401.5C966.11 531.761 855.904 637.78 720.5 637.78C497.964 637.488 317.02 811.558 317.02 1025.64H474.89C474.89 895.381 585.096 789.361 720.5 789.361C943.036 789.361 1123.98 615.291 1123.98 401.208C1123.98 187.125 942.733 13.3467 720.5 13.3467Z" fill="url(#paint1_radial_1_1095)"/>
<path d="M720.5 13.3467C585.096 13.3467 474.89 -92.6726 474.89 -222.933L317.02 -222.933C317.02 -8.85015 497.964 165.22 720.5 165.22C855.904 165.22 966.11 271.239 966.11 401.5C966.11 531.761 855.904 637.78 720.5 637.78C497.964 637.488 317.02 811.558 317.02 1025.64H474.89C474.89 895.381 585.096 789.361 720.5 789.361C943.036 789.361 1123.98 615.291 1123.98 401.208C1123.98 187.125 942.733 13.3467 720.5 13.3467Z" fill="url(#paint2_linear_1_1095)"/>
</g>
</g>
<mask id="mask1_1_1095" style="mask-type:alpha" maskUnits="userSpaceOnUse" x="317" y="-223" width="807" height="1249">
<path d="M720.5 13.3467C855.904 13.3467 966.11 -92.6726 966.11 -222.933L1123.98 -222.933C1123.98 -8.85017 943.036 165.22 720.5 165.22C585.096 165.22 474.89 271.239 474.89 401.5C474.89 531.761 585.096 637.78 720.5 637.78C943.036 637.78 1123.98 811.85 1123.98 1025.93L966.11 1025.93C966.11 895.673 855.904 789.653 720.5 789.653C497.964 789.361 317.02 615.291 317.02 401.208C317.02 187.125 497.964 13.3467 720.5 13.3467Z" fill="url(#paint3_linear_1_1095)"/>
</mask>
<g mask="url(#mask1_1_1095)">
<g filter="url(#filter1_ii_1_1095)">
<path d="M720.5 13.3467C855.904 13.3467 966.11 -92.6726 966.11 -222.933L1123.98 -222.933C1123.98 -8.85017 943.036 165.22 720.5 165.22C585.096 165.22 474.89 271.239 474.89 401.5C474.89 531.761 585.096 637.78 720.5 637.78C943.036 637.78 1123.98 811.85 1123.98 1025.93L966.11 1025.93C966.11 895.673 855.904 789.653 720.5 789.653C497.964 789.361 317.02 615.291 317.02 401.208C317.02 187.125 497.964 13.3467 720.5 13.3467Z" fill="url(#paint4_radial_1_1095)"/>
<path d="M720.5 13.3467C855.904 13.3467 966.11 -92.6726 966.11 -222.933L1123.98 -222.933C1123.98 -8.85017 943.036 165.22 720.5 165.22C585.096 165.22 474.89 271.239 474.89 401.5C474.89 531.761 585.096 637.78 720.5 637.78C943.036 637.78 1123.98 811.85 1123.98 1025.93L966.11 1025.93C966.11 895.673 855.904 789.653 720.5 789.653C497.964 789.361 317.02 615.291 317.02 401.208C317.02 187.125 497.964 13.3467 720.5 13.3467Z" fill="url(#paint5_linear_1_1095)"/>
</g>
</g>
<defs>
<filter id="filter0_ii_1_1095" x="287.637" y="-222.933" width="878.531" height="1299.99" filterUnits="userSpaceOnUse" color-interpolation-filters="sRGB">
<feFlood flood-opacity="0" result="BackgroundImageFix"/>
<feBlend mode="normal" in="SourceGraphic" in2="BackgroundImageFix" result="shape"/>
<feColorMatrix in="SourceAlpha" type="matrix" values="0 0 0 0 0 0 0 0 0 0 0 0 0 0 0 0 0 0 127 0" result="hardAlpha"/>
<feOffset dx="-29.3829" dy="51.4201"/>
<feGaussianBlur stdDeviation="62.4387"/>
<feComposite in2="hardAlpha" operator="arithmetic" k2="-1" k3="1"/>
<feColorMatrix type="matrix" values="0 0 0 0 1 0 0 0 0 1 0 0 0 0 1 0 0 0 0.87 0"/>
<feBlend mode="lighten" in2="shape" result="effect1_innerShadow_1_1095"/>
<feColorMatrix in="SourceAlpha" type="matrix" values="0 0 0 0 0 0 0 0 0 0 0 0 0 0 0 0 0 0 127 0" result="hardAlpha"/>
<feOffset dx="42.1884" dy="24.6099"/>
<feGaussianBlur stdDeviation="24.6099"/>
<feComposite in2="hardAlpha" operator="arithmetic" k2="-1" k3="1"/>
<feColorMatrix type="matrix" values="0 0 0 0 0.168627 0 0 0 0 0.180392 0 0 0 0 0.239216 0 0 0 0.9 0"/>
<feBlend mode="multiply" in2="effect1_innerShadow_1_1095" result="effect2_innerShadow_1_1095"/>
</filter>
<filter id="filter1_ii_1_1095" x="287.637" y="-222.933" width="878.531" height="1300.29" filterUnits="userSpaceOnUse" color-interpolation-filters="sRGB">
<feFlood flood-opacity="0" result="BackgroundImageFix"/>
<feBlend mode="normal" in="SourceGraphic" in2="BackgroundImageFix" result="shape"/>
<feColorMatrix in="SourceAlpha" type="matrix" values="0 0 0 0 0 0 0 0 0 0 0 0 0 0 0 0 0 0 127 0" result="hardAlpha"/>
<feOffset dx="-29.3829" dy="51.4201"/>
<feGaussianBlur stdDeviation="62.4387"/>
<feComposite in2="hardAlpha" operator="arithmetic" k2="-1" k3="1"/>
<feColorMatrix type="matrix" values="0 0 0 0 1 0 0 0 0 1 0 0 0 0 1 0 0 0 0.87 0"/>
<feBlend mode="lighten" in2="shape" result="effect1_innerShadow_1_1095"/>
<feColorMatrix in="SourceAlpha" type="matrix" values="0 0 0 0 0 0 0 0 0 0 0 0 0 0 0 0 0 0 127 0" result="hardAlpha"/>
<feOffset dx="42.1884" dy="24.6099"/>
<feGaussianBlur stdDeviation="24.6099"/>
<feComposite in2="hardAlpha" operator="arithmetic" k2="-1" k3="1"/>
<feColorMatrix type="matrix" values="0 0 0 0 0.168627 0 0 0 0 0.180392 0 0 0 0 0.239216 0 0 0 0.9 0"/>
<feBlend mode="multiply" in2="effect1_innerShadow_1_1095" result="effect2_innerShadow_1_1095"/>
</filter>
<linearGradient id="paint0_linear_1_1095" x1="1214.36" y1="956.315" x2="993.376" y2="369.429" gradientUnits="userSpaceOnUse">
<stop offset="0.416991" stop-opacity="0"/>
<stop offset="1"/>
</linearGradient>
<radialGradient id="paint1_radial_1_1095" cx="0" cy="0" r="1" gradientUnits="userSpaceOnUse" gradientTransform="translate(590.481 -324.837) rotate(88.2848) scale(472.807 795.415)">
<stop stop-color="#949494"/>
<stop offset="0.635171" stop-color="#181818"/>
<stop offset="1" stop-color="#1D1D1D"/>
</radialGradient>
<linearGradient id="paint2_linear_1_1095" x1="720.5" y1="-222.933" x2="720.5" y2="1025.64" gradientUnits="userSpaceOnUse">
<stop stop-color="#851AE2"/>
<stop offset="1" stop-color="#14CADD"/>
</linearGradient>
<linearGradient id="paint3_linear_1_1095" x1="589.209" y1="-309.393" x2="1018.03" y2="829.203" gradientUnits="userSpaceOnUse">
<stop offset="0.137931" stop-opacity="0"/>
<stop offset="1"/>
</linearGradient>
<radialGradient id="paint4_radial_1_1095" cx="0" cy="0" r="1" gradientUnits="userSpaceOnUse" gradientTransform="translate(590.481 -324.861) rotate(88.2852) scale(472.918 795.415)">
<stop stop-color="#949494"/>
<stop offset="0.635171" stop-color="#181818"/>
<stop offset="1" stop-color="#1D1D1D"/>
</radialGradient>
<linearGradient id="paint5_linear_1_1095" x1="720.5" y1="-222.933" x2="720.5" y2="1025.93" gradientUnits="userSpaceOnUse">
<stop stop-color="#851AE2"/>
<stop offset="1" stop-color="#14CADD"/>
</linearGradient>
</defs>
</svg>