<svg width="27" height="28" viewBox="0 0 27 28" fill="none" xmlns="http://www.w3.org/2000/svg">
<path d="M0.304142 27.3107L2.0944 20.7323C0.914761 18.7102 0.295 16.4103 0.298846 14.0692C0.298846 6.75588 6.22709 0.827637 13.5404 0.827637C20.8537 0.827637 26.7819 6.75588 26.7819 14.0692C26.7819 21.3825 20.8537 27.3107 13.5404 27.3107C11.2003 27.3145 8.90143 26.6952 6.8799 25.5165L0.304142 27.3107ZM8.76152 7.85625C8.59052 7.86687 8.42343 7.91191 8.27026 7.98867C8.12662 8.07001 7.99549 8.1717 7.88096 8.29058C7.72206 8.44021 7.63202 8.56997 7.53535 8.69577C7.04596 9.33268 6.78272 10.1145 6.78721 10.9177C6.78986 11.5665 6.95935 12.1982 7.22418 12.7887C7.76576 13.9831 8.65691 15.2477 9.83409 16.4196C10.1175 16.7016 10.3942 16.985 10.6921 17.2485C12.1532 18.5349 13.8943 19.4625 15.7769 19.9577L16.5303 20.0729C16.7753 20.0862 17.0203 20.0676 17.2666 20.0557C17.6522 20.0358 18.0288 19.9314 18.3696 19.7498C18.543 19.6605 18.7122 19.5633 18.8767 19.4585C18.8767 19.4585 18.9337 19.4214 19.0423 19.3393C19.221 19.2069 19.3309 19.1129 19.4792 18.958C19.5891 18.8441 19.6845 18.7104 19.7573 18.5581C19.8606 18.3422 19.9639 17.9304 20.0062 17.5875C20.038 17.3253 20.0288 17.1823 20.0248 17.0936C20.0195 16.9519 19.9016 16.8049 19.7732 16.7427L19.0025 16.3971C19.0025 16.3971 17.8505 15.8952 17.1474 15.5748C17.0733 15.5424 16.9938 15.524 16.913 15.5205C16.8224 15.5112 16.7309 15.5214 16.6446 15.5504C16.5582 15.5794 16.4791 15.6265 16.4125 15.6886V15.686C16.4059 15.686 16.3172 15.7615 15.3598 16.9214C15.3048 16.9953 15.2291 17.0511 15.1424 17.0817C15.0556 17.1124 14.9616 17.1165 14.8725 17.0936C14.7862 17.0705 14.7017 17.0413 14.6196 17.0062C14.4554 16.9373 14.3984 16.9108 14.2859 16.8618L14.2793 16.8592C13.5217 16.5284 12.8204 16.0817 12.2004 15.535C12.0335 15.3894 11.8786 15.2305 11.7197 15.0769C11.1987 14.578 10.7447 14.0136 10.369 13.3978L10.2909 13.272C10.2348 13.1875 10.1894 13.0963 10.1559 13.0006C10.1055 12.8059 10.2366 12.6497 10.2366 12.6497C10.2366 12.6497 10.5584 12.2975 10.708 12.1068C10.8326 11.9483 10.9489 11.7835 11.0563 11.6129C11.2125 11.3613 11.2615 11.1031 11.1794 10.9031C10.8087 9.99741 10.4247 9.09566 10.0301 8.20053C9.95194 8.0231 9.72021 7.89598 9.50967 7.87082C9.43817 7.86287 9.36666 7.85493 9.29516 7.84963C9.11733 7.8408 8.93914 7.84257 8.76152 7.85493V7.85625Z" fill="#7D7AD8"/>
</svg>
